<?xml version="1.0"?>
<svg xmlns="http://www.w3.org/2000/svg" viewBox="0 -30 400 630" width="400" height="600">
  <g id="ground">
    <line x1="24" y1="420" x2="376" y2="420" stroke="#e2e8f0" stroke-width="3" stroke-linecap="round"></line>
  </g>
  <g id="roots">
      <path id="root-tap" class="root" d="M 200 420 Q 200 444 200 456 Q 199 468 201 480 Q 202 492 201 504 Q 200 516 200 528 T 201 540" fill="none" stroke="#5a3a1f" stroke-width="7" stroke-linecap="round" stroke-linejoin="round"></path>
      <path id="root-tap-sub-1" class="root" d="M 200 466 Q 187 482 183 491 T 180 500" fill="none" stroke="#5a3a1f" stroke-width="2" stroke-linecap="round" stroke-linejoin="round"></path>
      <path id="root-tap-sub-2" class="root" d="M 200 497 Q 215 513 220 522 T 225 531" fill="none" stroke="#5a3a1f" stroke-width="2" stroke-linecap="round" stroke-linejoin="round"></path>
      <path id="root-tap-sub-3" class="root" d="M 200 528 Q 188 544 184 553 T 180 562" fill="none" stroke="#5a3a1f" stroke-width="2" stroke-linecap="round" stroke-linejoin="round"></path>
      <path id="root-lat-1" class="root" d="M 200 426 Q 165 442 140 447 Q 116 452 95 460 T 75 468" fill="none" stroke="#5a3a1f" stroke-width="4" stroke-linecap="round" stroke-linejoin="round"></path>
      <path id="root-lat-1-sub-1" class="root" d="M 125 451 Q 104 468 93 477 T 82 485" fill="none" stroke="#4a2d18" stroke-width="2" stroke-linecap="round" stroke-linejoin="round"></path>
      <path id="root-lat-1-sub-2" class="root" d="M 103 458 Q 83 459 73 461 T 63 462" fill="none" stroke="#4a2d18" stroke-width="2" stroke-linecap="round" stroke-linejoin="round"></path>
      <path id="root-lat-2" class="root" d="M 200 426 Q 233 441 255 445 Q 276 449 298 456 T 319 464" fill="none" stroke="#5a3a1f" stroke-width="4" stroke-linecap="round" stroke-linejoin="round"></path>
      <path id="root-lat-2-sub-1" class="root" d="M 272 448 Q 295 465 304 473 T 313 481" fill="none" stroke="#4a2d18" stroke-width="2" stroke-linecap="round" stroke-linejoin="round"></path>
      <path id="root-lat-2-sub-2" class="root" d="M 293 455 Q 312 456 321 457 T 330 458" fill="none" stroke="#4a2d18" stroke-width="2" stroke-linecap="round" stroke-linejoin="round"></path>
      <path id="root-lat-3" class="root" d="M 200 427 Q 172 449 150 459 Q 129 468 113 481 T 96 493" fill="none" stroke="#5a3a1f" stroke-width="4" stroke-linecap="round" stroke-linejoin="round"></path>
      <path id="root-lat-3-sub-1" class="root" d="M 138 467 Q 120 487 113 497 T 106 508" fill="none" stroke="#4a2d18" stroke-width="2" stroke-linecap="round" stroke-linejoin="round"></path>
      <path id="root-lat-3-sub-2" class="root" d="M 119 479 Q 102 486 93 488 T 84 490" fill="none" stroke="#4a2d18" stroke-width="2" stroke-linecap="round" stroke-linejoin="round"></path>
      <path id="root-lat-4" class="root" d="M 200 427 Q 227 448 246 457 Q 266 466 283 477 T 300 489" fill="none" stroke="#5a3a1f" stroke-width="4" stroke-linecap="round" stroke-linejoin="round"></path>
      <path id="root-lat-4-sub-1" class="root" d="M 260 464 Q 273 483 282 493 T 290 503" fill="none" stroke="#4a2d18" stroke-width="2" stroke-linecap="round" stroke-linejoin="round"></path>
      <path id="root-lat-4-sub-2" class="root" d="M 278 475 Q 295 479 303 483 T 311 486" fill="none" stroke="#4a2d18" stroke-width="2" stroke-linecap="round" stroke-linejoin="round"></path>
      <path id="root-lat-5" class="root" d="M 200 433 Q 180 459 165 470 Q 150 481 135 497 T 120 512" fill="none" stroke="#4a2d18" stroke-width="3" stroke-linecap="round" stroke-linejoin="round"></path>
      <path id="root-lat-5-sub-1" class="root" d="M 152 481 Q 143 502 137 513 T 132 523" fill="none" stroke="#4a2d18" stroke-width="2" stroke-linecap="round" stroke-linejoin="round"></path>
      <path id="root-lat-6" class="root" d="M 200 430 Q 221 454 237 464 Q 254 474 267 488 T 280 502" fill="none" stroke="#4a2d18" stroke-width="3" stroke-linecap="round" stroke-linejoin="round"></path>
      <path id="root-lat-6-sub-1" class="root" d="M 248 473 Q 257 493 263 503 T 269 513" fill="none" stroke="#4a2d18" stroke-width="2" stroke-linecap="round" stroke-linejoin="round"></path>
      <path id="root-lat-7" class="root" d="M 200 434 Q 189 460 179 472 Q 169 484 159 499 T 149 514" fill="none" stroke="#4a2d18" stroke-width="3" stroke-linecap="round" stroke-linejoin="round"></path>
      <path id="root-lat-7-sub-1" class="root" d="M 170 482 Q 166 502 163 511 T 161 521" fill="none" stroke="#4a2d18" stroke-width="2" stroke-linecap="round" stroke-linejoin="round"></path>
      <path id="root-lat-8" class="root" d="M 200 435 Q 212 462 222 475 Q 232 489 242 504 T 252 519" fill="none" stroke="#4a2d18" stroke-width="3" stroke-linecap="round" stroke-linejoin="round"></path>
      <path id="root-lat-8-sub-1" class="root" d="M 231 485 Q 235 506 237 516 T 239 526" fill="none" stroke="#4a2d18" stroke-width="2" stroke-linecap="round" stroke-linejoin="round"></path>
      <path id="root-lat-9" class="root" d="M 200 439 Q 195 467 187 480 Q 179 493 173 510 T 167 527" fill="none" stroke="#4a2d18" stroke-width="3" stroke-linecap="round" stroke-linejoin="round"></path>
      <path id="root-lat-10" class="root" d="M 200 439 Q 206 465 214 478 Q 222 491 228 506 T 234 520" fill="none" stroke="#4a2d18" stroke-width="3" stroke-linecap="round" stroke-linejoin="round"></path>
  </g>
  <g id="trunk">
      <path id="trunk-main" class="trunk" d="M 176 420 C 184 388, 194 321, 196 222 Q 204 213, 212 222 C 218 321, 217 388, 224 420 Z" fill="#8b5a2b"></path>
  </g>
  <g id="branches">
      <path id="branch-1" class="branch" d="M 199 230 Q 169 206 144 180" fill="none" stroke="#7c4d24" stroke-width="6" stroke-linecap="round"></path>
      <path id="branch-2" class="branch" d="M 203 228 Q 235 204 260 178" fill="none" stroke="#7c4d24" stroke-width="6" stroke-linecap="round"></path>
      <path id="branch-3" class="branch" d="M 201 226 Q 200 192 202 162" fill="none" stroke="#7c4d24" stroke-width="5" stroke-linecap="round"></path>
      <path id="branch-1-twig" class="branch" d="M 156 196 Q 142 182 134 166" fill="none" stroke="#7c4d24" stroke-width="4" stroke-linecap="round"></path>
      <path id="branch-2-twig" class="branch" d="M 248 194 Q 262 180 270 164" fill="none" stroke="#7c4d24" stroke-width="4" stroke-linecap="round"></path>
  </g>
  <g id="leaves">
      <path id="clump-d1" class="clump" d="M 243 150 Q 259 169 240 176 Q 239 198 215 191 Q 201 208 187 187 Q 158 197 155 180 Q 135 170 151 150 Q 137 131 159 123 Q 160 101 185 107 Q 200 89 216 107 Q 238 102 238 125 Q 258 132 243 150 Z" fill="#147A38"></path>
      <path id="clump-d2" class="clump" d="M 176 170 Q 187 186 168 191 Q 166 212 147 206 Q 130 221 118 204 Q 98 203 103 182 Q 89 171 106 159 Q 101 140 121 141 Q 132 120 148 131 Q 169 124 174 144 Q 190 152 176 170 Z" fill="#147A38"></path>
      <path id="clump-d3" class="clump" d="M 296 168 Q 309 185 292 192 Q 288 215 269 211 Q 250 224 237 204 Q 214 203 216 183 Q 199 168 214 153 Q 212 132 236 130 Q 249 113 268 126 Q 291 120 296 141 Q 311 149 296 168 Z" fill="#147A38"></path>
      <path id="clump-1" class="clump" d="M 238 132 Q 255 151 241 159 Q 238 176 213 168 Q 200 184 187 167 Q 164 175 161 157 Q 142 149 155 132 Q 144 116 166 110 Q 165 87 185 91 Q 200 74 215 91 Q 236 86 237 108 Q 253 115 238 132 Z" fill="#1B9445"></path>
      <path id="clump-2" class="clump" d="M 174 156 Q 186 172 173 178 Q 169 196 151 191 Q 137 199 128 182 Q 109 182 112 167 Q 99 156 113 146 Q 110 130 127 130 Q 137 114 150 123 Q 168 118 172 135 Q 185 141 174 156 Z" fill="#1B9445"></path>
      <path id="clump-3" class="clump" d="M 286 154 Q 298 170 287 177 Q 282 189 261 181 Q 248 193 240 180 Q 222 180 226 164 Q 211 153 222 143 Q 220 127 239 127 Q 249 110 263 119 Q 277 116 279 137 Q 294 141 286 154 Z" fill="#1B9445"></path>
      <path id="clump-l1" class="clump" d="M 228 110 Q 236 122 222 126 Q 220 141 205 136 Q 190 149 181 140 Q 166 137 169 120 Q 158 110 170 100 Q 166 83 182 81 Q 191 70 206 82 Q 222 76 225 91 Q 238 97 228 110 Z" fill="#8BC53F"></path>
      <path id="clump-l2" class="clump" d="M 171 136 Q 178 147 167 151 Q 162 164 150 160 Q 137 165 132 152 Q 118 147 122 136 Q 118 125 132 120 Q 137 109 150 114 Q 162 109 166 121 Q 178 125 171 136 Z" fill="#8BC53F"></path>
      <path id="clump-l3" class="clump" d="M 271 132 Q 279 145 270 150 Q 264 162 250 156 Q 239 160 235 146 Q 222 142 227 132 Q 222 122 234 118 Q 239 103 250 107 Q 262 103 267 117 Q 278 121 271 132 Z" fill="#8BC53F"></path>
      <path id="leaf-1" class="leaf" d="M0 0 C -7 -8, -4 -15, 0 -18 C 4 -15, 7 -8, 0 0 Z" fill="#147A38" transform="translate(122 182) rotate(-62)"></path>
      <path id="leaf-2" class="leaf" d="M0 0 C -7 -8, -4 -15, 0 -18 C 4 -15, 7 -8, 0 0 Z" fill="#147A38" transform="translate(278 178) rotate(58)"></path>
      <path id="leaf-3" class="leaf" d="M0 0 C -6 -7, -4 -14, 0 -16 C 4 -14, 6 -7, 0 0 Z" fill="#8BC53F" transform="translate(200 90) rotate(2)"></path>
  </g>
  <g id="blossoms">

  </g>
</svg>