<?xml version="1.0"?>
<svg xmlns="http://www.w3.org/2000/svg" viewBox="0 -30 400 630" width="400" height="600">
  <g id="ground">
    <line x1="24" y1="420" x2="376" y2="420" stroke="#e2e8f0" stroke-width="3" stroke-linecap="round"></line>
  </g>
  <g id="roots">
      <path id="root-tap" class="root" d="M 200 420 Q 200 447 199 461 Q 199 474 200 488 Q 202 501 200 515 Q 199 528 200 542 Q 201 555 200 569 T 199 582" fill="none" stroke="#5a3a1f" stroke-width="9" stroke-linecap="round" stroke-linejoin="round"></path>
      <path id="root-tap-sub-1" class="root" d="M 200 482 Q 185 498 180 507 T 175 516" fill="none" stroke="#5a3a1f" stroke-width="3" stroke-linecap="round" stroke-linejoin="round"></path>
      <path id="root-tap-sub-2" class="root" d="M 200 510 Q 211 526 215 535 T 218 544" fill="none" stroke="#5a3a1f" stroke-width="3" stroke-linecap="round" stroke-linejoin="round"></path>
      <path id="root-tap-sub-3" class="root" d="M 200 538 Q 185 554 182 563 T 180 572" fill="none" stroke="#5a3a1f" stroke-width="3" stroke-linecap="round" stroke-linejoin="round"></path>
      <path id="root-tap-sub-4" class="root" d="M 200 566 Q 215 582 218 591 T 222 600" fill="none" stroke="#5a3a1f" stroke-width="3" stroke-linecap="round" stroke-linejoin="round"></path>
      <path id="root-lat-1" class="root" d="M 200 427 Q 147 448 115 457 Q 83 466 51 478 T 20 489" fill="none" stroke="#5a3a1f" stroke-width="5" stroke-linecap="round" stroke-linejoin="round"></path>
      <path id="root-lat-1-sub-1" class="root" d="M 92 464 Q 59 490 44 502 T 30 515" fill="none" stroke="#4a2d18" stroke-width="3" stroke-linecap="round" stroke-linejoin="round"></path>
      <path id="root-lat-1-sub-2" class="root" d="M 59 476 Q 31 480 16 480 T 2 481" fill="none" stroke="#4a2d18" stroke-width="3" stroke-linecap="round" stroke-linejoin="round"></path>
      <path id="root-lat-2" class="root" d="M 200 427 Q 253 447 285 455 Q 318 462 349 474 T 380 486" fill="none" stroke="#5a3a1f" stroke-width="5" stroke-linecap="round" stroke-linejoin="round"></path>
      <path id="root-lat-2-sub-1" class="root" d="M 308 462 Q 339 487 355 499 T 371 512" fill="none" stroke="#4a2d18" stroke-width="3" stroke-linecap="round" stroke-linejoin="round"></path>
      <path id="root-lat-2-sub-2" class="root" d="M 341 473 Q 369 474 383 476 T 397 477" fill="none" stroke="#4a2d18" stroke-width="3" stroke-linecap="round" stroke-linejoin="round"></path>
      <path id="root-lat-3" class="root" d="M 200 428 Q 153 450 125 460 Q 96 470 67 483 T 39 495" fill="none" stroke="#5a3a1f" stroke-width="5" stroke-linecap="round" stroke-linejoin="round"></path>
      <path id="root-lat-3-sub-1" class="root" d="M 103 468 Q 73 493 61 506 T 49 518" fill="none" stroke="#4a2d18" stroke-width="3" stroke-linecap="round" stroke-linejoin="round"></path>
      <path id="root-lat-3-sub-2" class="root" d="M 74 481 Q 48 485 35 487 T 22 488" fill="none" stroke="#4a2d18" stroke-width="3" stroke-linecap="round" stroke-linejoin="round"></path>
      <path id="root-lat-4" class="root" d="M 200 429 Q 247 455 278 466 Q 308 478 336 493 T 364 508" fill="none" stroke="#5a3a1f" stroke-width="5" stroke-linecap="round" stroke-linejoin="round"></path>
      <path id="root-lat-4-sub-1" class="root" d="M 298 476 Q 326 504 339 518 T 351 531" fill="none" stroke="#4a2d18" stroke-width="3" stroke-linecap="round" stroke-linejoin="round"></path>
      <path id="root-lat-4-sub-2" class="root" d="M 328 491 Q 354 495 368 498 T 381 502" fill="none" stroke="#4a2d18" stroke-width="3" stroke-linecap="round" stroke-linejoin="round"></path>
      <path id="root-lat-5" class="root" d="M 200 427 Q 160 457 134 473 Q 108 489 83 507 T 58 524" fill="none" stroke="#5a3a1f" stroke-width="5" stroke-linecap="round" stroke-linejoin="round"></path>
      <path id="root-lat-5-sub-1" class="root" d="M 115 486 Q 92 515 82 530 T 73 544" fill="none" stroke="#4a2d18" stroke-width="3" stroke-linecap="round" stroke-linejoin="round"></path>
      <path id="root-lat-5-sub-2" class="root" d="M 89 503 Q 65 513 53 517 T 41 521" fill="none" stroke="#4a2d18" stroke-width="3" stroke-linecap="round" stroke-linejoin="round"></path>
      <path id="root-lat-6" class="root" d="M 200 428 Q 240 456 265 470 Q 291 484 316 500 T 341 516" fill="none" stroke="#5a3a1f" stroke-width="5" stroke-linecap="round" stroke-linejoin="round"></path>
      <path id="root-lat-6-sub-1" class="root" d="M 285 481 Q 306 508 317 522 T 328 535" fill="none" stroke="#4a2d18" stroke-width="3" stroke-linecap="round" stroke-linejoin="round"></path>
      <path id="root-lat-6-sub-2" class="root" d="M 310 496 Q 334 502 346 507 T 357 512" fill="none" stroke="#4a2d18" stroke-width="3" stroke-linecap="round" stroke-linejoin="round"></path>
      <path id="root-lat-7" class="root" d="M 200 430 Q 166 462 143 479 Q 120 497 99 516 T 78 535" fill="none" stroke="#4a2d18" stroke-width="5" stroke-linecap="round" stroke-linejoin="round"></path>
      <path id="root-lat-7-sub-1" class="root" d="M 127 493 Q 109 523 102 538 T 94 552" fill="none" stroke="#4a2d18" stroke-width="3" stroke-linecap="round" stroke-linejoin="round"></path>
      <path id="root-lat-8" class="root" d="M 200 430 Q 233 462 256 478 Q 278 494 299 514 T 319 534" fill="none" stroke="#4a2d18" stroke-width="5" stroke-linecap="round" stroke-linejoin="round"></path>
      <path id="root-lat-8-sub-1" class="root" d="M 271 492 Q 289 521 296 536 T 303 551" fill="none" stroke="#4a2d18" stroke-width="3" stroke-linecap="round" stroke-linejoin="round"></path>
      <path id="root-lat-9" class="root" d="M 200 434 Q 173 469 155 488 Q 137 506 118 527 T 100 548" fill="none" stroke="#4a2d18" stroke-width="4" stroke-linecap="round" stroke-linejoin="round"></path>
      <path id="root-lat-9-sub-1" class="root" d="M 140 502 Q 128 532 122 547 T 116 562" fill="none" stroke="#4a2d18" stroke-width="2" stroke-linecap="round" stroke-linejoin="round"></path>
      <path id="root-lat-10" class="root" d="M 200 432 Q 228 467 248 485 Q 268 504 286 526 T 305 548" fill="none" stroke="#4a2d18" stroke-width="4" stroke-linecap="round" stroke-linejoin="round"></path>
      <path id="root-lat-10-sub-1" class="root" d="M 263 501 Q 278 532 283 547 T 287 562" fill="none" stroke="#4a2d18" stroke-width="2" stroke-linecap="round" stroke-linejoin="round"></path>
      <path id="root-lat-11" class="root" d="M 200 433 Q 178 468 161 486 Q 145 505 130 527 T 115 549" fill="none" stroke="#4a2d18" stroke-width="4" stroke-linecap="round" stroke-linejoin="round"></path>
      <path id="root-lat-11-sub-1" class="root" d="M 149 502 Q 138 531 135 546 T 132 560" fill="none" stroke="#4a2d18" stroke-width="2" stroke-linecap="round" stroke-linejoin="round"></path>
      <path id="root-lat-12" class="root" d="M 200 436 Q 220 472 237 492 Q 253 512 266 534 T 279 557" fill="none" stroke="#4a2d18" stroke-width="4" stroke-linecap="round" stroke-linejoin="round"></path>
      <path id="root-lat-12-sub-1" class="root" d="M 247 508 Q 255 538 258 553 T 261 567" fill="none" stroke="#4a2d18" stroke-width="2" stroke-linecap="round" stroke-linejoin="round"></path>
      <path id="root-lat-13" class="root" d="M 200 437 Q 185 473 171 491 Q 157 509 148 532 T 138 555" fill="none" stroke="#4a2d18" stroke-width="4" stroke-linecap="round" stroke-linejoin="round"></path>
      <path id="root-lat-13-sub-1" class="root" d="M 163 508 Q 156 536 156 550 T 155 563" fill="none" stroke="#4a2d18" stroke-width="2" stroke-linecap="round" stroke-linejoin="round"></path>
      <path id="root-lat-14" class="root" d="M 200 436 Q 217 474 230 492 Q 244 511 256 536 T 268 560" fill="none" stroke="#4a2d18" stroke-width="4" stroke-linecap="round" stroke-linejoin="round"></path>
      <path id="root-lat-14-sub-1" class="root" d="M 241 511 Q 243 540 247 555 T 250 569" fill="none" stroke="#4a2d18" stroke-width="2" stroke-linecap="round" stroke-linejoin="round"></path>
      <path id="root-lat-15" class="root" d="M 200 438 Q 192 475 183 496 Q 174 517 167 539 T 159 562" fill="none" stroke="#4a2d18" stroke-width="4" stroke-linecap="round" stroke-linejoin="round"></path>
      <path id="root-lat-16" class="root" d="M 200 441 Q 208 477 215 497 Q 223 517 231 540 T 239 562" fill="none" stroke="#4a2d18" stroke-width="4" stroke-linecap="round" stroke-linejoin="round"></path>
      <path id="root-spread-1" class="root" d="M 87 494 Q 46 504 25 512 T 5 520" fill="none" stroke="#4a2d18" stroke-width="3" stroke-linecap="round" stroke-linejoin="round"></path>
      <path id="root-spread-1-sub-1" class="root" d="M 46 504 Q 13 530 10 538 T 7 546" fill="none" stroke="#4a2d18" stroke-width="2" stroke-linecap="round" stroke-linejoin="round"></path>
      <path id="root-spread-2" class="root" d="M 313 494 Q 354 504 375 512 T 396 520" fill="none" stroke="#4a2d18" stroke-width="3" stroke-linecap="round" stroke-linejoin="round"></path>
      <path id="root-spread-2-sub-1" class="root" d="M 354 504 Q 388 530 391 538 T 394 546" fill="none" stroke="#4a2d18" stroke-width="2" stroke-linecap="round" stroke-linejoin="round"></path>
  </g>
  <g id="trunk">
      <path id="trunk-main" class="trunk" d="M 169 420 C 179 380, 191 296, 193 172 Q 204 160, 215 172 C 222 296, 221 380, 231 420 Z" fill="#8b5a2b"></path>
  </g>
  <g id="branches">
      <path id="branch-1" class="branch" d="M 196 194 Q 134 168 78 138" fill="none" stroke="#7c4d24" stroke-width="10" stroke-linecap="round"></path>
      <path id="branch-2" class="branch" d="M 205 192 Q 266 166 324 136" fill="none" stroke="#7c4d24" stroke-width="10" stroke-linecap="round"></path>
      <path id="branch-3" class="branch" d="M 198 190 Q 156 124 130 72" fill="none" stroke="#7c4d24" stroke-width="9" stroke-linecap="round"></path>
      <path id="branch-4" class="branch" d="M 205 188 Q 246 122 272 70" fill="none" stroke="#7c4d24" stroke-width="9" stroke-linecap="round"></path>
      <path id="branch-5" class="branch" d="M 201 190 Q 200 122 200 58" fill="none" stroke="#7c4d24" stroke-width="8" stroke-linecap="round"></path>
      <path id="branch-3-twig" class="branch" d="M 146 108 Q 126 86 114 62" fill="none" stroke="#7c4d24" stroke-width="5" stroke-linecap="round"></path>
      <path id="branch-4-twig" class="branch" d="M 256 106 Q 278 84 290 62" fill="none" stroke="#7c4d24" stroke-width="5" stroke-linecap="round"></path>
      <path id="branch-1-twig" class="branch" d="M 120 152 Q 96 140 76 124" fill="none" stroke="#7c4d24" stroke-width="5" stroke-linecap="round"></path>
      <path id="branch-2-twig" class="branch" d="M 282 150 Q 306 138 326 122" fill="none" stroke="#7c4d24" stroke-width="5" stroke-linecap="round"></path>
  </g>
  <g id="leaves">
      <path id="clump-d1" class="clump" d="M 124 116 Q 144 133 124 140 Q 129 161 104 156 Q 97 176 78 158 Q 56 180 48 163 Q 25 165 32 140 Q 8 133 23 116 Q 8 99 31 92 Q 26 69 51 74 Q 59 53 78 70 Q 96 55 103 77 Q 131 71 128 90 Q 146 98 124 116 Z" fill="#147A38"></path>
      <path id="clump-d2" class="clump" d="M 372 112 Q 389 127 366 133 Q 374 157 352 153 Q 345 177 326 162 Q 308 176 301 151 Q 279 156 286 133 Q 263 127 279 112 Q 259 94 277 87 Q 273 64 298 68 Q 306 46 326 63 Q 347 45 356 66 Q 383 61 380 84 Q 395 93 372 112 Z" fill="#147A38"></path>
      <path id="clump-d3" class="clump" d="M 170 70 Q 190 87 172 94 Q 178 118 155 115 Q 147 133 126 113 Q 105 133 97 116 Q 74 118 80 94 Q 55 86 68 70 Q 53 52 75 43 Q 71 20 96 23 Q 105 6 126 26 Q 145 9 152 29 Q 176 25 171 46 Q 190 53 170 70 Z" fill="#147A38"></path>
      <path id="clump-d4" class="clump" d="M 318 68 Q 340 86 325 94 Q 327 114 299 107 Q 292 132 274 120 Q 257 131 250 105 Q 223 112 225 93 Q 206 86 225 68 Q 206 51 226 43 Q 221 20 246 24 Q 254 3 274 19 Q 292 6 299 29 Q 325 23 322 43 Q 339 50 318 68 Z" fill="#147A38"></path>
      <path id="clump-d5" class="clump" d="M 248 74 Q 271 92 255 100 Q 260 122 233 117 Q 228 142 207 128 Q 190 147 179 124 Q 155 133 156 109 Q 135 106 151 85 Q 128 73 146 62 Q 133 42 158 40 Q 156 16 179 25 Q 191 2 207 21 Q 229 5 235 29 Q 260 26 253 49 Q 270 57 248 74 Z" fill="#147A38"></path>
      <path id="clump-d6" class="clump" d="M 249 122 Q 273 140 255 148 Q 263 173 238 171 Q 231 190 207 170 Q 189 193 178 173 Q 152 184 152 160 Q 124 157 135 136 Q 120 124 149 111 Q 135 91 160 90 Q 156 63 178 70 Q 190 47 208 67 Q 231 50 238 73 Q 262 71 252 97 Q 272 105 249 122 Z" fill="#147A38"></path>
      <path id="clump-d7" class="clump" d="M 194 98 Q 210 114 195 120 Q 196 140 175 136 Q 165 152 150 136 Q 131 146 128 127 Q 105 127 112 110 Q 99 100 120 88 Q 111 71 130 71 Q 133 52 150 62 Q 164 47 173 64 Q 193 59 189 79 Q 208 84 194 98 Z" fill="#147A38"></path>
      <path id="clump-d8" class="clump" d="M 282 96 Q 300 113 286 120 Q 285 136 260 128 Q 252 147 238 133 Q 219 144 215 126 Q 197 124 207 106 Q 190 96 206 86 Q 196 67 215 66 Q 219 46 238 55 Q 251 43 261 64 Q 285 56 286 72 Q 300 79 282 96 Z" fill="#147A38"></path>
      <path id="clump-1" class="clump" d="M 120 98 Q 139 114 126 121 Q 127 136 103 131 Q 97 148 82 135 Q 65 151 58 135 Q 38 138 43 118 Q 25 112 40 98 Q 24 83 40 76 Q 37 57 58 61 Q 65 43 82 57 Q 99 43 106 61 Q 126 58 122 77 Q 137 83 120 98 Z" fill="#1B9445"></path>
      <path id="clump-2" class="clump" d="M 360 94 Q 378 109 364 116 Q 368 136 347 133 Q 340 148 322 132 Q 306 146 300 128 Q 280 132 285 113 Q 266 107 279 94 Q 264 79 281 73 Q 277 54 298 57 Q 305 42 322 59 Q 337 45 342 63 Q 361 59 355 77 Q 374 81 360 94 Z" fill="#1B9445"></path>
      <path id="clump-3" class="clump" d="M 166 52 Q 183 66 170 72 Q 172 87 151 82 Q 146 100 132 89 Q 117 102 111 86 Q 94 88 100 69 Q 80 64 91 52 Q 77 38 93 32 Q 90 14 109 16 Q 116 1 132 14 Q 145 4 151 23 Q 170 19 166 34 Q 181 39 166 52 Z" fill="#1B9445"></path>
      <path id="clump-4" class="clump" d="M 303 50 Q 316 62 300 67 Q 307 87 291 87 Q 285 99 268 82 Q 252 98 246 85 Q 227 87 231 69 Q 217 64 232 50 Q 215 36 228 29 Q 225 11 245 14 Q 252 -1 268 14 Q 282 3 287 21 Q 304 17 298 34 Q 315 39 303 50 Z" fill="#1B9445"></path>
      <path id="clump-5" class="clump" d="M 238 58 Q 253 71 237 75 Q 242 91 222 86 Q 220 109 206 101 Q 194 112 186 90 Q 167 100 167 84 Q 147 83 156 68 Q 141 58 159 49 Q 148 33 167 32 Q 165 11 182 16 Q 191 2 205 21 Q 220 9 223 28 Q 244 24 240 39 Q 255 45 238 58 Z" fill="#1B9445"></path>
      <path id="clump-6" class="clump" d="M 241 106 Q 259 120 242 126 Q 248 143 225 138 Q 222 162 206 153 Q 191 170 181 151 Q 160 158 162 137 Q 140 135 151 117 Q 133 106 151 95 Q 140 77 161 75 Q 161 57 184 67 Q 192 47 206 63 Q 225 49 229 68 Q 250 66 242 86 Q 259 92 241 106 Z" fill="#1B9445"></path>
      <path id="clump-7" class="clump" d="M 189 82 Q 203 96 192 101 Q 192 118 174 114 Q 166 127 153 113 Q 139 121 136 105 Q 115 105 119 92 Q 109 84 127 74 Q 119 59 134 57 Q 137 41 153 49 Q 166 36 174 50 Q 190 47 188 65 Q 202 70 189 82 Z" fill="#1B9445"></path>
      <path id="clump-8" class="clump" d="M 273 80 Q 288 94 276 100 Q 277 116 259 113 Q 251 124 238 108 Q 222 118 218 105 Q 200 104 205 90 Q 192 80 207 71 Q 199 54 215 52 Q 219 35 236 43 Q 248 34 256 53 Q 274 48 272 63 Q 286 68 273 80 Z" fill="#1B9445"></path>
      <path id="clump-l1" class="clump" d="M 115 82 Q 123 92 110 95 Q 111 108 98 104 Q 88 118 80 111 Q 67 113 67 97 Q 54 93 62 82 Q 53 70 64 65 Q 66 53 81 58 Q 90 47 99 58 Q 111 55 110 69 Q 123 72 115 82 Z" fill="#8BC53F"></path>
      <path id="clump-l2" class="clump" d="M 339 78 Q 349 89 338 94 Q 337 105 322 100 Q 313 112 305 103 Q 289 107 288 95 Q 274 90 281 78 Q 275 68 291 63 Q 291 49 305 53 Q 314 42 323 52 Q 336 50 336 64 Q 347 68 339 78 Z" fill="#8BC53F"></path>
      <path id="clump-l3" class="clump" d="M 163 40 Q 173 51 165 56 Q 163 68 149 65 Q 141 73 133 60 Q 120 64 120 53 Q 108 49 116 40 Q 106 29 115 24 Q 117 13 132 18 Q 140 8 148 18 Q 162 14 163 25 Q 172 30 163 40 Z" fill="#8BC53F"></path>
      <path id="clump-l4" class="clump" d="M 283 38 Q 293 49 284 54 Q 283 64 267 58 Q 260 69 252 60 Q 239 64 238 52 Q 228 48 237 38 Q 229 29 241 25 Q 240 12 252 15 Q 260 4 269 14 Q 280 12 280 25 Q 291 29 283 38 Z" fill="#8BC53F"></path>
      <path id="clump-l5" class="clump" d="M 226 44 Q 239 56 230 61 Q 229 72 212 67 Q 205 81 196 73 Q 181 81 177 68 Q 163 66 170 52 Q 157 44 167 35 Q 164 24 181 24 Q 183 10 196 17 Q 205 8 211 22 Q 225 18 222 31 Q 236 35 226 44 Z" fill="#8BC53F"></path>
      <path id="leaf-1" class="leaf" d="M0 0 C -9 -9, -5 -19, 0 -22 C 5 -19, 9 -9, 0 0 Z" fill="#147A38" transform="translate(48 126) rotate(-70)"></path>
      <path id="leaf-2" class="leaf" d="M0 0 C -9 -9, -5 -19, 0 -22 C 5 -19, 9 -9, 0 0 Z" fill="#147A38" transform="translate(352 120) rotate(66)"></path>
      <path id="leaf-3" class="leaf" d="M0 0 C -7 -8, -4 -15, 0 -18 C 4 -15, 7 -8, 0 0 Z" fill="#1B9445" transform="translate(100 48) rotate(-36)"></path>
      <path id="leaf-4" class="leaf" d="M0 0 C -7 -8, -4 -15, 0 -18 C 4 -15, 7 -8, 0 0 Z" fill="#1B9445" transform="translate(300 44) rotate(34)"></path>
      <path id="leaf-5" class="leaf" d="M0 0 C -7 -8, -4 -15, 0 -18 C 4 -15, 7 -8, 0 0 Z" fill="#8BC53F" transform="translate(200 22) rotate(2)"></path>
  </g>
  <g id="blossoms">
      <g id="bloom-1" class="blossom"><circle cx="200" cy="35" r="3" fill="#FDC030"></circle><circle cx="205" cy="39" r="3" fill="#FDC030"></circle><circle cx="203" cy="44" r="3" fill="#FDC030"></circle><circle cx="197" cy="44" r="3" fill="#FDC030"></circle><circle cx="195" cy="39" r="3" fill="#FDC030"></circle><circle cx="200" cy="40" r="2" fill="#E0950F"></circle></g>
      <g id="bloom-2" class="blossom"><circle cx="150" cy="42" r="3" fill="#FDC030"></circle><circle cx="154" cy="45" r="3" fill="#FDC030"></circle><circle cx="153" cy="49" r="3" fill="#FDC030"></circle><circle cx="148" cy="49" r="3" fill="#FDC030"></circle><circle cx="146" cy="45" r="3" fill="#FDC030"></circle><circle cx="150" cy="46" r="2" fill="#E0950F"></circle></g>
      <g id="bloom-3" class="blossom"><circle cx="250" cy="40" r="3" fill="#FDC030"></circle><circle cx="254" cy="43" r="3" fill="#FDC030"></circle><circle cx="253" cy="47" r="3" fill="#FDC030"></circle><circle cx="248" cy="47" r="3" fill="#FDC030"></circle><circle cx="246" cy="43" r="3" fill="#FDC030"></circle><circle cx="250" cy="44" r="2" fill="#E0950F"></circle></g>
      <g id="bloom-4" class="blossom"><circle cx="126" cy="56" r="3" fill="#FDC030"></circle><circle cx="130" cy="59" r="3" fill="#FDC030"></circle><circle cx="129" cy="63" r="3" fill="#FDC030"></circle><circle cx="124" cy="63" r="3" fill="#FDC030"></circle><circle cx="122" cy="59" r="3" fill="#FDC030"></circle><circle cx="126" cy="60" r="2" fill="#E0950F"></circle></g>
      <g id="bloom-5" class="blossom"><circle cx="274" cy="53" r="3" fill="#FDC030"></circle><circle cx="279" cy="57" r="3" fill="#FDC030"></circle><circle cx="277" cy="62" r="3" fill="#FDC030"></circle><circle cx="271" cy="62" r="3" fill="#FDC030"></circle><circle cx="269" cy="57" r="3" fill="#FDC030"></circle><circle cx="274" cy="58" r="2" fill="#E0950F"></circle></g>
      <g id="bloom-6" class="blossom"><circle cx="100" cy="80" r="3" fill="#FDC030"></circle><circle cx="104" cy="83" r="3" fill="#FDC030"></circle><circle cx="103" cy="87" r="3" fill="#FDC030"></circle><circle cx="98" cy="87" r="3" fill="#FDC030"></circle><circle cx="96" cy="83" r="3" fill="#FDC030"></circle><circle cx="100" cy="84" r="2" fill="#E0950F"></circle></g>
      <g id="bloom-7" class="blossom"><circle cx="300" cy="76" r="3" fill="#FDC030"></circle><circle cx="304" cy="79" r="3" fill="#FDC030"></circle><circle cx="303" cy="83" r="3" fill="#FDC030"></circle><circle cx="298" cy="83" r="3" fill="#FDC030"></circle><circle cx="296" cy="79" r="3" fill="#FDC030"></circle><circle cx="300" cy="80" r="2" fill="#E0950F"></circle></g>
      <g id="bloom-8" class="blossom"><circle cx="168" cy="64" r="3" fill="#FDC030"></circle><circle cx="172" cy="67" r="3" fill="#FDC030"></circle><circle cx="171" cy="71" r="3" fill="#FDC030"></circle><circle cx="166" cy="71" r="3" fill="#FDC030"></circle><circle cx="164" cy="67" r="3" fill="#FDC030"></circle><circle cx="168" cy="68" r="2" fill="#E0950F"></circle></g>
      <g id="bloom-9" class="blossom"><circle cx="232" cy="61" r="3" fill="#FDC030"></circle><circle cx="237" cy="65" r="3" fill="#FDC030"></circle><circle cx="235" cy="70" r="3" fill="#FDC030"></circle><circle cx="229" cy="70" r="3" fill="#FDC030"></circle><circle cx="227" cy="65" r="3" fill="#FDC030"></circle><circle cx="232" cy="66" r="2" fill="#E0950F"></circle></g>
      <g id="bloom-10" class="blossom"><circle cx="200" cy="56" r="3" fill="#FDC030"></circle><circle cx="204" cy="59" r="3" fill="#FDC030"></circle><circle cx="203" cy="63" r="3" fill="#FDC030"></circle><circle cx="198" cy="63" r="3" fill="#FDC030"></circle><circle cx="196" cy="59" r="3" fill="#FDC030"></circle><circle cx="200" cy="60" r="2" fill="#E0950F"></circle></g>
      <g id="bloom-11" class="blossom"><circle cx="78" cy="104" r="3" fill="#FDC030"></circle><circle cx="82" cy="107" r="3" fill="#FDC030"></circle><circle cx="81" cy="111" r="3" fill="#FDC030"></circle><circle cx="76" cy="111" r="3" fill="#FDC030"></circle><circle cx="74" cy="107" r="3" fill="#FDC030"></circle><circle cx="78" cy="108" r="2" fill="#E0950F"></circle></g>
      <g id="bloom-12" class="blossom"><circle cx="322" cy="100" r="3" fill="#FDC030"></circle><circle cx="326" cy="103" r="3" fill="#FDC030"></circle><circle cx="325" cy="107" r="3" fill="#FDC030"></circle><circle cx="320" cy="107" r="3" fill="#FDC030"></circle><circle cx="318" cy="103" r="3" fill="#FDC030"></circle><circle cx="322" cy="104" r="2" fill="#E0950F"></circle></g>
      <g id="bloom-13" class="blossom"><circle cx="124" cy="79" r="3" fill="#FDC030"></circle><circle cx="129" cy="83" r="3" fill="#FDC030"></circle><circle cx="127" cy="88" r="3" fill="#FDC030"></circle><circle cx="121" cy="88" r="3" fill="#FDC030"></circle><circle cx="119" cy="83" r="3" fill="#FDC030"></circle><circle cx="124" cy="84" r="2" fill="#E0950F"></circle></g>
      <g id="bloom-14" class="blossom"><circle cx="276" cy="78" r="3" fill="#FDC030"></circle><circle cx="280" cy="81" r="3" fill="#FDC030"></circle><circle cx="279" cy="85" r="3" fill="#FDC030"></circle><circle cx="274" cy="85" r="3" fill="#FDC030"></circle><circle cx="272" cy="81" r="3" fill="#FDC030"></circle><circle cx="276" cy="82" r="2" fill="#E0950F"></circle></g>
      <g id="bloom-15" class="blossom"><circle cx="200" cy="86" r="3" fill="#FDC030"></circle><circle cx="204" cy="89" r="3" fill="#FDC030"></circle><circle cx="203" cy="93" r="3" fill="#FDC030"></circle><circle cx="198" cy="93" r="3" fill="#FDC030"></circle><circle cx="196" cy="89" r="3" fill="#FDC030"></circle><circle cx="200" cy="90" r="2" fill="#E0950F"></circle></g>
      <g id="bloom-16" class="blossom"><circle cx="156" cy="92" r="3" fill="#FDC030"></circle><circle cx="160" cy="95" r="3" fill="#FDC030"></circle><circle cx="159" cy="99" r="3" fill="#FDC030"></circle><circle cx="154" cy="99" r="3" fill="#FDC030"></circle><circle cx="152" cy="95" r="3" fill="#FDC030"></circle><circle cx="156" cy="96" r="2" fill="#E0950F"></circle></g>
      <g id="bloom-17" class="blossom"><circle cx="244" cy="89" r="3" fill="#FDC030"></circle><circle cx="249" cy="93" r="3" fill="#FDC030"></circle><circle cx="247" cy="98" r="3" fill="#FDC030"></circle><circle cx="241" cy="98" r="3" fill="#FDC030"></circle><circle cx="239" cy="93" r="3" fill="#FDC030"></circle><circle cx="244" cy="94" r="2" fill="#E0950F"></circle></g>
      <g id="bloom-18" class="blossom"><circle cx="96" cy="120" r="3" fill="#FDC030"></circle><circle cx="100" cy="123" r="3" fill="#FDC030"></circle><circle cx="99" cy="127" r="3" fill="#FDC030"></circle><circle cx="94" cy="127" r="3" fill="#FDC030"></circle><circle cx="92" cy="123" r="3" fill="#FDC030"></circle><circle cx="96" cy="124" r="2" fill="#E0950F"></circle></g>
      <g id="bloom-19" class="blossom"><circle cx="304" cy="116" r="3" fill="#FDC030"></circle><circle cx="308" cy="119" r="3" fill="#FDC030"></circle><circle cx="307" cy="123" r="3" fill="#FDC030"></circle><circle cx="302" cy="123" r="3" fill="#FDC030"></circle><circle cx="300" cy="119" r="3" fill="#FDC030"></circle><circle cx="304" cy="120" r="2" fill="#E0950F"></circle></g>
      <g id="bloom-20" class="blossom"><circle cx="200" cy="112" r="3" fill="#FDC030"></circle><circle cx="204" cy="115" r="3" fill="#FDC030"></circle><circle cx="203" cy="119" r="3" fill="#FDC030"></circle><circle cx="198" cy="119" r="3" fill="#FDC030"></circle><circle cx="196" cy="115" r="3" fill="#FDC030"></circle><circle cx="200" cy="116" r="2" fill="#E0950F"></circle></g>
      <g id="bloom-21" class="blossom"><circle cx="140" cy="105" r="3" fill="#FDC030"></circle><circle cx="145" cy="109" r="3" fill="#FDC030"></circle><circle cx="143" cy="114" r="3" fill="#FDC030"></circle><circle cx="137" cy="114" r="3" fill="#FDC030"></circle><circle cx="135" cy="109" r="3" fill="#FDC030"></circle><circle cx="140" cy="110" r="2" fill="#E0950F"></circle></g>
      <g id="bloom-22" class="blossom"><circle cx="260" cy="104" r="3" fill="#FDC030"></circle><circle cx="264" cy="107" r="3" fill="#FDC030"></circle><circle cx="263" cy="111" r="3" fill="#FDC030"></circle><circle cx="258" cy="111" r="3" fill="#FDC030"></circle><circle cx="256" cy="107" r="3" fill="#FDC030"></circle><circle cx="260" cy="108" r="2" fill="#E0950F"></circle></g>
      <g id="bloom-23" class="blossom"><circle cx="114" cy="64" r="3" fill="#FDC030"></circle><circle cx="118" cy="67" r="3" fill="#FDC030"></circle><circle cx="117" cy="71" r="3" fill="#FDC030"></circle><circle cx="112" cy="71" r="3" fill="#FDC030"></circle><circle cx="110" cy="67" r="3" fill="#FDC030"></circle><circle cx="114" cy="68" r="2" fill="#E0950F"></circle></g>
      <g id="bloom-24" class="blossom"><circle cx="286" cy="62" r="3" fill="#FDC030"></circle><circle cx="290" cy="65" r="3" fill="#FDC030"></circle><circle cx="289" cy="69" r="3" fill="#FDC030"></circle><circle cx="284" cy="69" r="3" fill="#FDC030"></circle><circle cx="282" cy="65" r="3" fill="#FDC030"></circle><circle cx="286" cy="66" r="2" fill="#E0950F"></circle></g>
      <g id="bloom-25" class="blossom"><circle cx="176" cy="75" r="3" fill="#FDC030"></circle><circle cx="181" cy="79" r="3" fill="#FDC030"></circle><circle cx="179" cy="84" r="3" fill="#FDC030"></circle><circle cx="173" cy="84" r="3" fill="#FDC030"></circle><circle cx="171" cy="79" r="3" fill="#FDC030"></circle><circle cx="176" cy="80" r="2" fill="#E0950F"></circle></g>
      <g id="bloom-26" class="blossom"><circle cx="224" cy="74" r="3" fill="#FDC030"></circle><circle cx="228" cy="77" r="3" fill="#FDC030"></circle><circle cx="227" cy="81" r="3" fill="#FDC030"></circle><circle cx="222" cy="81" r="3" fill="#FDC030"></circle><circle cx="220" cy="77" r="3" fill="#FDC030"></circle><circle cx="224" cy="78" r="2" fill="#E0950F"></circle></g>
      <g id="bloom-27" class="blossom"><circle cx="148" cy="124" r="3" fill="#FDC030"></circle><circle cx="152" cy="127" r="3" fill="#FDC030"></circle><circle cx="151" cy="131" r="3" fill="#FDC030"></circle><circle cx="146" cy="131" r="3" fill="#FDC030"></circle><circle cx="144" cy="127" r="3" fill="#FDC030"></circle><circle cx="148" cy="128" r="2" fill="#E0950F"></circle></g>
      <g id="bloom-28" class="blossom"><circle cx="252" cy="122" r="3" fill="#FDC030"></circle><circle cx="256" cy="125" r="3" fill="#FDC030"></circle><circle cx="255" cy="129" r="3" fill="#FDC030"></circle><circle cx="250" cy="129" r="3" fill="#FDC030"></circle><circle cx="248" cy="125" r="3" fill="#FDC030"></circle><circle cx="252" cy="126" r="2" fill="#E0950F"></circle></g>
      <g id="bloom-29" class="blossom"><circle cx="200" cy="129" r="3" fill="#FDC030"></circle><circle cx="205" cy="133" r="3" fill="#FDC030"></circle><circle cx="203" cy="138" r="3" fill="#FDC030"></circle><circle cx="197" cy="138" r="3" fill="#FDC030"></circle><circle cx="195" cy="133" r="3" fill="#FDC030"></circle><circle cx="200" cy="134" r="2" fill="#E0950F"></circle></g>
      <g id="bloom-30" class="blossom"><circle cx="182" cy="48" r="3" fill="#FDC030"></circle><circle cx="186" cy="51" r="3" fill="#FDC030"></circle><circle cx="185" cy="55" r="3" fill="#FDC030"></circle><circle cx="180" cy="55" r="3" fill="#FDC030"></circle><circle cx="178" cy="51" r="3" fill="#FDC030"></circle><circle cx="182" cy="52" r="2" fill="#E0950F"></circle></g>
  </g>
</svg>