<?xml version="1.0"?>
<svg xmlns="http://www.w3.org/2000/svg" viewBox="0 -30 400 630" width="400" height="600">
  <g id="ground">
    <line x1="24" y1="420" x2="376" y2="420" stroke="#e2e8f0" stroke-width="3" stroke-linecap="round"></line>
  </g>
  <g id="roots">
      <path id="root-tap" class="root" d="M 200 420 Q 200 442 199 453 Q 198 464 200 475 T 201 486" fill="none" stroke="#5a3a1f" stroke-width="5" stroke-linecap="round" stroke-linejoin="round"></path>
      <path id="root-tap-sub-1" class="root" d="M 200 445 Q 187 461 181 470 T 176 479" fill="none" stroke="#5a3a1f" stroke-width="2" stroke-linecap="round" stroke-linejoin="round"></path>
      <path id="root-tap-sub-2" class="root" d="M 200 479 Q 212 495 218 504 T 224 513" fill="none" stroke="#5a3a1f" stroke-width="2" stroke-linecap="round" stroke-linejoin="round"></path>
      <path id="root-lat-1" class="root" d="M 200 426 Q 184 439 170 442 Q 157 444 145 450 T 133 456" fill="none" stroke="#5a3a1f" stroke-width="3" stroke-linecap="round" stroke-linejoin="round"></path>
      <path id="root-lat-1-sub-1" class="root" d="M 160 444 Q 146 454 142 460 T 138 465" fill="none" stroke="#4a2d18" stroke-width="2" stroke-linecap="round" stroke-linejoin="round"></path>
      <path id="root-lat-1-sub-2" class="root" d="M 148 449 Q 137 451 132 452 T 126 453" fill="none" stroke="#4a2d18" stroke-width="2" stroke-linecap="round" stroke-linejoin="round"></path>
      <path id="root-lat-2" class="root" d="M 200 428 Q 216 440 231 443 Q 246 446 256 451 T 267 456" fill="none" stroke="#5a3a1f" stroke-width="3" stroke-linecap="round" stroke-linejoin="round"></path>
      <path id="root-lat-2-sub-1" class="root" d="M 240 445 Q 253 455 257 460 T 262 465" fill="none" stroke="#4a2d18" stroke-width="2" stroke-linecap="round" stroke-linejoin="round"></path>
      <path id="root-lat-2-sub-2" class="root" d="M 252 450 Q 263 450 268 452 T 273 453" fill="none" stroke="#4a2d18" stroke-width="2" stroke-linecap="round" stroke-linejoin="round"></path>
      <path id="root-lat-3" class="root" d="M 200 434 Q 190 450 180 455 Q 170 460 162 468 T 154 477" fill="none" stroke="#4a2d18" stroke-width="2" stroke-linecap="round" stroke-linejoin="round"></path>
      <path id="root-lat-3-sub-1" class="root" d="M 173 460 Q 168 472 164 478 T 161 483" fill="none" stroke="#4a2d18" stroke-width="2" stroke-linecap="round" stroke-linejoin="round"></path>
      <path id="root-lat-4" class="root" d="M 200 433 Q 209 449 221 454 Q 232 460 238 467 T 245 473" fill="none" stroke="#4a2d18" stroke-width="2" stroke-linecap="round" stroke-linejoin="round"></path>
      <path id="root-lat-4-sub-1" class="root" d="M 227 457 Q 233 468 236 474 T 239 480" fill="none" stroke="#4a2d18" stroke-width="2" stroke-linecap="round" stroke-linejoin="round"></path>
      <path id="root-lat-5" class="root" d="M 200 436 Q 198 454 193 459 Q 188 465 183 475 T 179 484" fill="none" stroke="#4a2d18" stroke-width="2" stroke-linecap="round" stroke-linejoin="round"></path>
      <path id="root-lat-5-sub-1" class="root" d="M 187 465 Q 189 476 187 481 T 186 487" fill="none" stroke="#4a2d18" stroke-width="2" stroke-linecap="round" stroke-linejoin="round"></path>
      <path id="root-lat-6" class="root" d="M 200 436 Q 202 455 210 461 Q 218 466 220 477 T 222 488" fill="none" stroke="#4a2d18" stroke-width="2" stroke-linecap="round" stroke-linejoin="round"></path>
      <path id="root-lat-6-sub-1" class="root" d="M 213 467 Q 216 479 215 485 T 215 491" fill="none" stroke="#4a2d18" stroke-width="2" stroke-linecap="round" stroke-linejoin="round"></path>
  </g>
  <g id="trunk">
      <path id="trunk-main" class="trunk" d="M 190 420 C 193 402, 199 365, 201 310 Q 204 306, 207 310 C 209 365, 208 402, 210 420 Z" fill="#8b5a2b"></path>
  </g>
  <g id="branches">
      <path id="branch-1" class="branch" d="M 200 324 Q 188 314 176 308" fill="none" stroke="#7c4d24" stroke-width="3" stroke-linecap="round"></path>
      <path id="branch-2" class="branch" d="M 202 316 Q 216 306 230 301" fill="none" stroke="#7c4d24" stroke-width="3" stroke-linecap="round"></path>
      <path id="branch-3" class="branch" d="M 201 310 Q 201 298 202 290" fill="none" stroke="#7c4d24" stroke-width="2" stroke-linecap="round"></path>
  </g>
  <g id="leaves">
      <path id="clump-d1" class="clump" d="M 222 300 Q 227 312 216 316 Q 209 326 197 319 Q 185 320 184 308 Q 173 298 179 290 Q 182 279 197 280 Q 209 274 217 284 Q 227 288 222 300 Z" fill="#147A38"></path>
      <path id="clump-1" class="clump" d="M 219 290 Q 225 302 216 307 Q 209 315 197 308 Q 185 309 184 298 Q 174 289 180 281 Q 183 270 196 271 Q 207 266 214 276 Q 224 280 219 290 Z" fill="#1B9445"></path>
      <path id="leaf-1" class="leaf" d="M0 0 C -7 -7, -4 -15, 0 -17 C 4 -15, 7 -7, 0 0 Z" fill="#147A38" transform="translate(176 308) rotate(-54)"></path>
      <path id="leaf-2" class="leaf" d="M0 0 C -7 -7, -4 -15, 0 -17 C 4 -15, 7 -7, 0 0 Z" fill="#1B9445" transform="translate(230 301) rotate(46)"></path>
      <path id="leaf-3" class="leaf" d="M0 0 C -6 -7, -4 -14, 0 -16 C 4 -14, 6 -7, 0 0 Z" fill="#8BC53F" transform="translate(202 276) rotate(4)"></path>
  </g>
  <g id="blossoms">

  </g>
</svg>