<?xml version="1.0"?>
<svg xmlns="http://www.w3.org/2000/svg" viewBox="0 0 400 600" width="400" height="600">
  <g id="ground">
    <line x1="24" y1="420" x2="376" y2="420" stroke="#e2e8f0" stroke-width="2.5" stroke-linecap="round"></line>
  </g>
  <g id="roots">
      <path id="root-tap" class="root" d="M 200 420 Q 200 448 200.5 463.0 Q 201 478 200.5 493.0 Q 200 508 200.5 521.0 T 201 534" fill="none" stroke="#5a3a1f" stroke-width="6.6" stroke-linecap="round" stroke-linejoin="round"></path>
      <path id="root-tap-sub-1" class="root" d="M 200 508 Q 188 522 185.5 530.0 T 183 538" fill="none" stroke="#5a3a1f" stroke-width="2.6" stroke-linecap="round" stroke-linejoin="round"></path>
      <path id="root-tap-sub-2" class="root" d="M 201 478 Q 213 492 216.0 500.0 T 219 508" fill="none" stroke="#5a3a1f" stroke-width="2.2" stroke-linecap="round" stroke-linejoin="round"></path>
      <path id="root-lat-1" class="root" d="M 200 425 Q 166 434 152.0 441.0 Q 138 448 127.0 457.0 Q 116 466 109.0 476.0 T 102 486" fill="none" stroke="#5a3a1f" stroke-width="4.6" stroke-linecap="round" stroke-linejoin="round"></path>
      <path id="root-lat-1-sub-1" class="root" d="M 138 448 Q 124 460 120.0 468.0 T 116 476" fill="none" stroke="#4a2d18" stroke-width="2.6" stroke-linecap="round" stroke-linejoin="round"></path>
      <path id="root-lat-1-sub-2" class="root" d="M 116 466 Q 102 476 98.0 484.0 T 94 492" fill="none" stroke="#4a2d18" stroke-width="2" stroke-linecap="round" stroke-linejoin="round"></path>
      <path id="root-lat-2" class="root" d="M 200 425 Q 234 434 248.0 441.0 Q 262 448 273.0 457.0 Q 284 466 291.0 476.0 T 298 486" fill="none" stroke="#5a3a1f" stroke-width="4.6" stroke-linecap="round" stroke-linejoin="round"></path>
      <path id="root-lat-2-sub-1" class="root" d="M 262 448 Q 276 460 280.0 468.0 T 284 476" fill="none" stroke="#4a2d18" stroke-width="2.6" stroke-linecap="round" stroke-linejoin="round"></path>
      <path id="root-lat-2-sub-2" class="root" d="M 284 466 Q 298 476 302.0 484.0 T 306 492" fill="none" stroke="#4a2d18" stroke-width="2" stroke-linecap="round" stroke-linejoin="round"></path>
      <path id="root-lat-3" class="root" d="M 200 434 Q 172 456 163.0 468.0 Q 154 480 150.0 492.0 T 146 504" fill="none" stroke="#4a2d18" stroke-width="3.6" stroke-linecap="round" stroke-linejoin="round"></path>
      <path id="root-lat-3-sub-1" class="root" d="M 154 480 Q 142 494 139.5 502.0 T 137 510" fill="none" stroke="#4a2d18" stroke-width="2.2" stroke-linecap="round" stroke-linejoin="round"></path>
      <path id="root-lat-4" class="root" d="M 200 434 Q 228 456 237.0 468.0 Q 246 480 250.0 492.0 T 254 504" fill="none" stroke="#4a2d18" stroke-width="3.6" stroke-linecap="round" stroke-linejoin="round"></path>
      <path id="root-lat-4-sub-1" class="root" d="M 246 480 Q 258 494 260.5 502.0 T 263 510" fill="none" stroke="#4a2d18" stroke-width="2.2" stroke-linecap="round" stroke-linejoin="round"></path>
      <path id="root-fine-1" class="root" d="M 102 486 Q 92 502 90.0 510.0 T 88 518" fill="none" stroke="#4a2d18" stroke-width="2" stroke-linecap="round" stroke-linejoin="round"></path>
      <path id="root-fine-2" class="root" d="M 298 486 Q 308 502 310.0 510.0 T 312 518" fill="none" stroke="#4a2d18" stroke-width="2" stroke-linecap="round" stroke-linejoin="round"></path>
  </g>
  <g id="trunk">
      <path id="trunk-main" class="trunk" d="M 175.975 420 C 183.5 388.32, 194 321, 196 222 Q 204 213.2, 212 222 C 217.5 321, 216.5 388.32, 224.025 420 Z" fill="#8b5a2b"></path>
  </g>
  <g id="branches">
      <path id="branch-1" class="branch" d="M 195 236 Q 144 216 106 208" fill="none" stroke="#7c4d24" stroke-width="4" stroke-linecap="round"></path>
      <path id="branch-2" class="branch" d="M 206 224 Q 258 204 294 200" fill="none" stroke="#7c4d24" stroke-width="4" stroke-linecap="round"></path>
      <path id="branch-3" class="branch" d="M 198 212 Q 166 182 150 154" fill="none" stroke="#7c4d24" stroke-width="3.2" stroke-linecap="round"></path>
      <path id="branch-4" class="branch" d="M 205 202 Q 244 172 264 146" fill="none" stroke="#7c4d24" stroke-width="3.2" stroke-linecap="round"></path>
      <path id="branch-5" class="branch" d="M 201 194 Q 201 166 203 140" fill="none" stroke="#7c4d24" stroke-width="3" stroke-linecap="round"></path>
      <path id="branch-6" class="branch" d="M 196 224 Q 162 206 144 196" fill="none" stroke="#7c4d24" stroke-width="2.8" stroke-linecap="round"></path>
  </g>
  <g id="leaves">
      <path id="clump-d1" class="clump" d="M 259.8 156.0 Q 282.7 178.5 258.6 187.6 Q 261.3 214.7 229.8 206.9 Q 217.1 230.8 195.9 206.5 Q 164.0 227.5 156.0 205.9 Q 128.3 201.7 142.5 172.3 Q 117.0 155.6 140.4 139.2 Q 129.6 113.2 161.2 111.6 Q 166.9 82.8 194.7 97.7 Q 215.7 77.5 229.6 105.6 Q 259.0 98.5 254.7 126.7 Q 280.8 134.9 259.8 156.0 Z" fill="#5e8460"></path>
      <path id="clump-d2" class="clump" d="M 179.7 196.0 Q 192.1 210.7 172.8 216.1 Q 174.2 237.5 155.3 232.8 Q 141.5 250.3 128.0 234.8 Q 108.1 239.3 108.7 217.8 Q 90.4 211.7 103.8 196.0 Q 91.3 181.0 110.6 175.4 Q 109.1 152.8 127.7 156.5 Q 142.0 139.8 156.3 156.3 Q 177.5 151.4 178.1 172.4 Q 194.7 179.2 179.7 196.0 Z" fill="#5e8460"></path>
      <path id="clump-d3" class="clump" d="M 303.7 190.0 Q 318.1 206.4 300.9 212.8 Q 301.4 236.5 281.8 233.9 Q 266.5 249.4 250.9 231.8 Q 228.1 236.8 226.1 216.1 Q 204.5 207.6 214.8 190.0 Q 204.1 172.0 225.1 163.3 Q 227.5 142.7 250.8 147.9 Q 266.1 131.2 281.3 147.7 Q 300.8 144.5 300.1 167.7 Q 317.7 173.9 303.7 190.0 Z" fill="#5e8460"></path>
      <path id="clump-d4" class="clump" d="M 239.4 178.0 Q 256.7 197.0 241.3 205.0 Q 239.1 225.6 214.9 219.4 Q 199.7 237.3 184.6 220.7 Q 161.5 225.9 160.1 204.1 Q 138.9 195.9 151.0 178.0 Q 142.0 162.6 166.4 156.0 Q 165.4 133.5 185.7 138.3 Q 200.1 120.9 214.4 138.0 Q 237.7 131.8 239.1 152.4 Q 255.7 159.9 239.4 178.0 Z" fill="#5e8460"></path>
      <path id="clump-1" class="clump" d="M 247.6 132.0 Q 270.5 153.6 253.5 162.9 Q 252.6 183.6 221.8 175.1 Q 210.7 196.9 192.7 177.6 Q 166.7 193.7 160.5 173.0 Q 135.0 170.3 145.5 146.4 Q 126.3 132.6 148.9 118.5 Q 136.7 93.8 160.3 90.8 Q 166.4 65.7 191.4 77.9 Q 210.6 61.0 223.7 85.3 Q 251.4 79.2 250.0 103.1 Q 268.8 111.6 247.6 132.0 Z" fill="#7c9a76"></path>
      <path id="clump-2" class="clump" d="M 177.2 180.0 Q 190.9 195.0 178.7 201.4 Q 177.3 219.2 158.8 215.6 Q 147.5 226.3 135.3 209.6 Q 117.3 215.0 116.6 199.2 Q 100.6 193.5 110.9 180.0 Q 101.0 166.8 117.4 161.3 Q 117.3 143.2 134.0 146.6 Q 146.0 132.9 158.1 146.5 Q 173.4 143.8 172.2 162.9 Q 187.8 167.5 177.2 180.0 Z" fill="#7c9a76"></path>
      <path id="clump-3" class="clump" d="M 293.2 174.0 Q 307.6 189.6 296.2 196.3 Q 293.1 209.0 271.8 201.1 Q 261.3 216.1 251.3 203.7 Q 234.4 208.5 234.6 191.9 Q 216.1 186.6 223.9 174.0 Q 214.9 160.5 232.2 154.5 Q 232.2 135.3 248.9 137.8 Q 259.5 128.9 271.6 147.3 Q 290.8 140.4 292.2 154.3 Q 305.7 159.9 293.2 174.0 Z" fill="#7c9a76"></path>
      <path id="clump-4" class="clump" d="M 235.2 100.0 Q 245.4 112.2 229.4 116.6 Q 230.2 132.8 214.0 127.6 Q 201.8 145.6 190.9 136.2 Q 174.2 138.7 174.2 119.5 Q 158.4 113.7 168.8 100.0 Q 156.7 85.0 170.8 78.3 Q 173.0 63.3 192.9 69.3 Q 204.1 55.5 215.2 69.1 Q 230.6 65.4 229.4 83.4 Q 245.4 87.9 235.2 100.0 Z" fill="#90ab8a"></path>
      <path id="clump-5" class="clump" d="M 182.6 140.0 Q 191.1 151.6 179.2 156.0 Q 176.9 170.7 163.3 167.0 Q 151.2 175.7 143.2 163.1 Q 126.8 162.9 127.9 149.9 Q 118.3 140.5 130.3 130.9 Q 128.5 118.3 144.2 118.4 Q 151.2 106.9 162.6 116.6 Q 176.4 111.5 178.4 124.6 Q 190.7 128.8 182.6 140.0 Z" fill="#90ab8a"></path>
      <path id="clump-6" class="clump" d="M 274.6 134.0 Q 285.0 147.4 275.2 153.0 Q 271.2 166.3 255.4 161.5 Q 244.8 168.3 237.4 153.7 Q 222.5 154.3 225.0 142.2 Q 214.4 134.1 225.4 125.9 Q 221.2 110.4 233.6 108.5 Q 241.8 98.4 254.8 109.4 Q 269.0 104.5 271.5 117.8 Q 283.2 122.3 274.6 134.0 Z" fill="#90ab8a"></path>
      <path id="leaf-1" class="leaf" d="M0 0 C -7.2 -7.56, -3.9600000000000004 -15.48, 0 -18 C 3.9600000000000004 -15.48, 7.2 -7.56, 0 0 Z" fill="#5e8460" transform="translate(106.0 208.0) rotate(-64.0)"></path>
      <path id="leaf-2" class="leaf" d="M0 0 C -7.2 -7.56, -3.9600000000000004 -15.48, 0 -18 C 3.9600000000000004 -15.48, 7.2 -7.56, 0 0 Z" fill="#5e8460" transform="translate(294.0 200.0) rotate(60.0)"></path>
  </g>
  <g id="blossoms">

  </g>
</svg>