<?xml version="1.0"?>
<svg xmlns="http://www.w3.org/2000/svg" viewBox="0 -30 400 630" width="400" height="600">
  <g id="ground">
    <line x1="24" y1="420" x2="376" y2="420" stroke="#e2e8f0" stroke-width="3" stroke-linecap="round"></line>
  </g>
  <g id="roots">
      <path id="root-tap" class="root" d="M 200 420 Q 200 432 200 439 T 199 446" fill="none" stroke="#5a3a1f" stroke-width="3" stroke-linecap="round" stroke-linejoin="round"></path>
      <path id="root-hair-1" class="root" d="M 200 430 Q 195 438 194 443 T 192 448" fill="none" stroke="#4a2d18" stroke-width="2" stroke-linecap="round" stroke-linejoin="round"></path>
      <path id="root-hair-2" class="root" d="M 200 430 Q 205 438 207 443 T 208 448" fill="none" stroke="#4a2d18" stroke-width="2" stroke-linecap="round" stroke-linejoin="round"></path>
  </g>
  <g id="trunk">
      <ellipse id="seed" cx="200" cy="416" rx="7" ry="5" fill="#8b5a2b"></ellipse>
      <path id="sprout-stem" class="trunk" d="M 200 418 Q 199 404 203 392" fill="none" stroke="#147A38" stroke-width="3" stroke-linecap="round"></path>
  </g>
  <g id="branches">

  </g>
  <g id="leaves">
      <path id="cotyledon-1" class="leaf" d="M0 0 C -5 -5, -3 -10, 0 -12 C 3 -10, 5 -5, 0 0 Z" fill="#1B9445" transform="translate(200 396) rotate(-40)"></path>
      <path id="cotyledon-2" class="leaf" d="M0 0 C -5 -5, -3 -10, 0 -12 C 3 -10, 5 -5, 0 0 Z" fill="#1B9445" transform="translate(204 394) rotate(34)"></path>
  </g>
  <g id="blossoms">

  </g>
</svg>