<?xml version="1.0"?>
<svg xmlns="http://www.w3.org/2000/svg" viewBox="0 0 400 600" width="400" height="600">
  <g id="ground">
    <line x1="24" y1="420" x2="376" y2="420" stroke="#e2e8f0" stroke-width="2.5" stroke-linecap="round"></line>
  </g>
  <g id="roots">
      <path id="root-tap" class="root" d="M 200 420 Q 200 452 200.5 469.0 Q 201 486 200.5 503.0 Q 200 520 200.5 536.0 T 201 552" fill="none" stroke="#5a3a1f" stroke-width="8" stroke-linecap="round" stroke-linejoin="round"></path>
      <path id="root-tap-sub-1" class="root" d="M 200 520 Q 186 534 183.0 543.0 T 180 552" fill="none" stroke="#5a3a1f" stroke-width="3" stroke-linecap="round" stroke-linejoin="round"></path>
      <path id="root-tap-sub-2" class="root" d="M 201 486 Q 216 500 219.0 509.0 T 222 518" fill="none" stroke="#5a3a1f" stroke-width="2.6" stroke-linecap="round" stroke-linejoin="round"></path>
      <path id="root-tap-sub-3" class="root" d="M 200 452 Q 212 466 214.0 474.0 T 216 482" fill="none" stroke="#5a3a1f" stroke-width="2.2" stroke-linecap="round" stroke-linejoin="round"></path>
      <path id="root-lat-1" class="root" d="M 200 425 Q 158 434 140.0 441.0 Q 122 448 106.0 458.0 Q 90 468 78.0 480.0 T 66 492" fill="none" stroke="#5a3a1f" stroke-width="5.8" stroke-linecap="round" stroke-linejoin="round"></path>
      <path id="root-lat-1-sub-1" class="root" d="M 122 448 Q 106 462 101.0 472.0 T 96 482" fill="none" stroke="#4a2d18" stroke-width="3.2" stroke-linecap="round" stroke-linejoin="round"></path>
      <path id="root-lat-1-sub-2" class="root" d="M 90 468 Q 74 480 69.0 490.0 T 64 500" fill="none" stroke="#4a2d18" stroke-width="2.6" stroke-linecap="round" stroke-linejoin="round"></path>
      <path id="root-lat-1-sub-3" class="root" d="M 158 434 Q 148 450 146.0 458.0 T 144 466" fill="none" stroke="#4a2d18" stroke-width="2.4" stroke-linecap="round" stroke-linejoin="round"></path>
      <path id="root-lat-2" class="root" d="M 200 425 Q 242 434 260.0 441.0 Q 278 448 294.0 458.0 Q 310 468 322.0 480.0 T 334 492" fill="none" stroke="#5a3a1f" stroke-width="5.8" stroke-linecap="round" stroke-linejoin="round"></path>
      <path id="root-lat-2-sub-1" class="root" d="M 278 448 Q 294 462 299.0 472.0 T 304 482" fill="none" stroke="#4a2d18" stroke-width="3.2" stroke-linecap="round" stroke-linejoin="round"></path>
      <path id="root-lat-2-sub-2" class="root" d="M 310 468 Q 326 480 331.0 490.0 T 336 500" fill="none" stroke="#4a2d18" stroke-width="2.6" stroke-linecap="round" stroke-linejoin="round"></path>
      <path id="root-lat-2-sub-3" class="root" d="M 242 434 Q 252 450 254.0 458.0 T 256 466" fill="none" stroke="#4a2d18" stroke-width="2.4" stroke-linecap="round" stroke-linejoin="round"></path>
      <path id="root-lat-3" class="root" d="M 200 436 Q 162 458 149.0 472.0 Q 136 486 129.0 500.0 T 122 514" fill="none" stroke="#4a2d18" stroke-width="4.6" stroke-linecap="round" stroke-linejoin="round"></path>
      <path id="root-lat-3-sub-1" class="root" d="M 136 486 Q 122 500 119.0 510.0 T 116 520" fill="none" stroke="#4a2d18" stroke-width="2.6" stroke-linecap="round" stroke-linejoin="round"></path>
      <path id="root-lat-3-sub-2" class="root" d="M 162 458 Q 150 472 147.5 480.0 T 145 488" fill="none" stroke="#4a2d18" stroke-width="2" stroke-linecap="round" stroke-linejoin="round"></path>
      <path id="root-lat-4" class="root" d="M 200 436 Q 238 458 251.0 472.0 Q 264 486 271.0 500.0 T 278 514" fill="none" stroke="#4a2d18" stroke-width="4.6" stroke-linecap="round" stroke-linejoin="round"></path>
      <path id="root-lat-4-sub-1" class="root" d="M 264 486 Q 278 500 281.0 510.0 T 284 520" fill="none" stroke="#4a2d18" stroke-width="2.6" stroke-linecap="round" stroke-linejoin="round"></path>
      <path id="root-lat-4-sub-2" class="root" d="M 238 458 Q 250 472 252.5 480.0 T 255 488" fill="none" stroke="#4a2d18" stroke-width="2" stroke-linecap="round" stroke-linejoin="round"></path>
      <path id="root-fine-1" class="root" d="M 90 468 Q 78 486 76.0 496.0 T 74 506" fill="none" stroke="#4a2d18" stroke-width="2.2" stroke-linecap="round" stroke-linejoin="round"></path>
      <path id="root-fine-2" class="root" d="M 310 468 Q 322 486 324.0 496.0 T 326 506" fill="none" stroke="#4a2d18" stroke-width="2.2" stroke-linecap="round" stroke-linejoin="round"></path>
  </g>
  <g id="trunk">
      <path id="trunk-main" class="trunk" d="M 169 420 C 179 380.32, 191 296, 193 172 Q 204 159.9, 215 172 C 222 296, 221 380.32, 231 420 Z" fill="#8b5a2b"></path>
  </g>
  <g id="branches">
      <path id="branch-1" class="branch" d="M 193 196 Q 136 178 90 168" fill="none" stroke="#7c4d24" stroke-width="4.8" stroke-linecap="round"></path>
      <path id="branch-2" class="branch" d="M 208 182 Q 268 162 312 156" fill="none" stroke="#7c4d24" stroke-width="4.8" stroke-linecap="round"></path>
      <path id="branch-3" class="branch" d="M 196 168 Q 150 130 130 94" fill="none" stroke="#7c4d24" stroke-width="4" stroke-linecap="round"></path>
      <path id="branch-4" class="branch" d="M 206 158 Q 256 120 280 86" fill="none" stroke="#7c4d24" stroke-width="4" stroke-linecap="round"></path>
      <path id="branch-5" class="branch" d="M 201 150 Q 201 110 203 76" fill="none" stroke="#7c4d24" stroke-width="3.6" stroke-linecap="round"></path>
      <path id="branch-6" class="branch" d="M 195 184 Q 158 166 138 156" fill="none" stroke="#7c4d24" stroke-width="3.4" stroke-linecap="round"></path>
      <path id="branch-7" class="branch" d="M 206 176 Q 242 158 262 150" fill="none" stroke="#7c4d24" stroke-width="3.4" stroke-linecap="round"></path>
  </g>
  <g id="leaves">
      <path id="clump-d1" class="clump" d="M 271.2 96.0 Q 300.1 121.1 271.8 131.2 Q 278.7 162.4 241.5 154.4 Q 231.5 184.1 204.0 157.5 Q 172.4 189.2 159.8 164.9 Q 126.8 168.0 137.1 130.8 Q 101.8 120.2 124.0 96.0 Q 101.2 71.4 135.8 60.6 Q 128.3 27.8 164.6 34.5 Q 175.6 3.7 204.0 29.2 Q 230.5 6.0 240.3 39.4 Q 281.2 29.3 277.4 57.8 Q 302.8 69.2 271.2 96.0 Z" fill="#5e8460"></path>
      <path id="clump-d2" class="clump" d="M 167.6 144.0 Q 184.2 161.0 160.4 167.4 Q 165.6 193.1 142.5 188.3 Q 130.3 212.3 111.9 194.9 Q 89.7 205.9 86.0 179.4 Q 61.9 178.4 73.8 156.2 Q 52.5 143.9 73.0 131.6 Q 59.6 107.1 81.9 104.4 Q 87.3 79.5 111.7 92.0 Q 130.7 74.3 143.4 98.0 Q 172.4 91.1 172.0 113.9 Q 189.8 122.9 167.6 144.0 Z" fill="#5e8460"></path>
      <path id="clump-d3" class="clump" d="M 331.6 134.0 Q 350.8 152.9 329.8 160.5 Q 334.4 189.1 310.8 186.9 Q 296.5 208.5 275.2 188.8 Q 249.8 201.2 243.2 176.3 Q 214.5 173.7 222.0 150.4 Q 201.6 134.1 222.9 117.8 Q 215.0 94.4 243.4 91.8 Q 249.8 66.5 275.1 78.4 Q 293.4 63.8 306.1 90.5 Q 335.1 82.8 334.6 104.7 Q 353.1 113.4 331.6 134.0 Z" fill="#5e8460"></path>
      <path id="clump-d4" class="clump" d="M 249.2 156.0 Q 272.1 177.8 253.7 187.1 Q 254.5 211.7 225.1 205.5 Q 211.4 229.9 191.1 211.5 Q 165.6 224.0 159.6 198.0 Q 131.7 195.6 141.2 171.5 Q 124.1 157.7 150.2 142.8 Q 137.6 118.6 162.1 116.6 Q 167.1 91.0 191.7 103.9 Q 211.9 83.9 225.1 106.5 Q 253.5 100.7 251.9 126.0 Q 271.3 134.8 249.2 156.0 Z" fill="#5e8460"></path>
      <path id="clump-1" class="clump" d="M 257.4 68.0 Q 286.2 92.0 266.5 102.5 Q 268.2 126.4 231.7 117.5 Q 223.2 144.7 200.0 123.6 Q 174.1 148.1 163.6 124.7 Q 133.5 128.8 140.6 98.9 Q 113.7 89.5 135.7 68.0 Q 111.7 45.2 136.6 35.1 Q 131.3 6.1 163.4 10.9 Q 174.3 -15.6 200.0 6.1 Q 225.3 -15.0 235.9 12.1 Q 267.3 7.2 261.3 36.2 Q 283.7 45.6 257.4 68.0 Z" fill="#7c9a76"></path>
      <path id="clump-2" class="clump" d="M 163.4 124.0 Q 181.7 141.4 167.0 148.9 Q 168.3 170.4 145.8 167.0 Q 135.0 181.9 117.8 162.9 Q 97.9 174.4 94.0 155.2 Q 72.8 153.9 81.4 135.3 Q 64.0 124.0 81.2 112.7 Q 71.6 92.7 91.7 90.5 Q 96.5 69.8 117.0 80.0 Q 131.2 68.1 141.0 90.5 Q 161.8 84.8 158.6 104.0 Q 177.7 109.5 163.4 124.0 Z" fill="#7c9a76"></path>
      <path id="clump-3" class="clump" d="M 319.4 114.0 Q 338.6 132.1 324.9 140.0 Q 323.3 155.3 296.6 146.8 Q 287.7 167.0 273.8 153.0 Q 255.1 163.5 252.0 143.1 Q 227.8 143.0 233.9 126.2 Q 217.4 114.3 235.4 102.2 Q 225.4 81.0 245.0 77.6 Q 251.1 63.2 274.4 78.9 Q 290.2 60.2 299.6 75.4 Q 320.2 71.4 317.1 92.6 Q 334.8 98.6 319.4 114.0 Z" fill="#7c9a76"></path>
      <path id="clump-4" class="clump" d="M 240.1 36.0 Q 252.7 48.9 234.6 53.7 Q 238.0 71.6 219.5 66.5 Q 210.1 88.8 197.0 79.6 Q 179.7 86.6 176.1 65.0 Q 156.8 63.7 164.9 46.3 Q 145.8 34.8 158.4 23.9 Q 153.7 8.2 176.8 7.8 Q 180.3 -10.9 198.0 -1.3 Q 210.7 -13.2 219.1 6.3 Q 240.1 -0.1 238.7 15.9 Q 254.6 21.6 240.1 36.0 Z" fill="#90ab8a"></path>
      <path id="clump-5" class="clump" d="M 171.5 86.0 Q 183.7 99.5 171.1 105.1 Q 169.8 118.8 151.7 112.7 Q 141.2 127.2 131.3 115.7 Q 112.5 121.1 110.3 106.7 Q 93.6 99.9 101.9 86.0 Q 95.6 73.6 114.3 67.9 Q 114.6 51.6 131.0 55.6 Q 142.1 42.5 153.1 55.3 Q 168.4 51.9 167.9 69.1 Q 182.1 73.7 171.5 86.0 Z" fill="#90ab8a"></path>
      <path id="clump-6" class="clump" d="M 295.5 76.0 Q 309.0 90.6 297.9 96.9 Q 295.9 112.4 277.5 107.9 Q 267.6 117.8 256.7 101.9 Q 240.2 107.4 240.2 92.9 Q 225.0 88.1 234.6 76.0 Q 222.1 61.6 234.2 55.2 Q 236.6 41.5 255.7 47.5 Q 266.1 34.4 276.4 47.2 Q 293.9 42.1 294.9 57.1 Q 307.6 62.5 295.5 76.0 Z" fill="#90ab8a"></path>
      <path id="leaf-1" class="leaf" d="M0 0 C -8 -8.4, -4.4 -17.2, 0 -20 C 4.4 -17.2, 8 -8.4, 0 0 Z" fill="#5e8460" transform="translate(86.0 166.0) rotate(-66.0)"></path>
      <path id="leaf-2" class="leaf" d="M0 0 C -8 -8.4, -4.4 -17.2, 0 -20 C 4.4 -17.2, 8 -8.4, 0 0 Z" fill="#5e8460" transform="translate(314.0 156.0) rotate(62.0)"></path>
      <path id="leaf-3" class="leaf" d="M0 0 C -7.2 -7.56, -3.9600000000000004 -15.48, 0 -18 C 3.9600000000000004 -15.48, 7.2 -7.56, 0 0 Z" fill="#7c9a76" transform="translate(132.0 66.0) rotate(-32.0)"></path>
      <path id="leaf-4" class="leaf" d="M0 0 C -7.2 -7.56, -3.9600000000000004 -15.48, 0 -18 C 3.9600000000000004 -15.48, 7.2 -7.56, 0 0 Z" fill="#7c9a76" transform="translate(276.0 58.0) rotate(30.0)"></path>
  </g>
  <g id="blossoms">

  </g>
</svg>