<?xml version="1.0"?>
<svg xmlns="http://www.w3.org/2000/svg" viewBox="0 -30 400 630" width="400" height="600">
  <g id="ground">
    <line x1="24" y1="420" x2="376" y2="420" stroke="#e2e8f0" stroke-width="3" stroke-linecap="round"></line>
  </g>
  <g id="roots">
      <path id="root-tap" class="root" d="M 200 420 Q 200 448 199 461 Q 198 475 199 489 Q 201 503 200 517 Q 198 530 200 544 T 201 558" fill="none" stroke="#5a3a1f" stroke-width="8" stroke-linecap="round" stroke-linejoin="round"></path>
      <path id="root-tap-sub-1" class="root" d="M 200 472 Q 186 488 184 497 T 182 506" fill="none" stroke="#5a3a1f" stroke-width="3" stroke-linecap="round" stroke-linejoin="round"></path>
      <path id="root-tap-sub-2" class="root" d="M 200 508 Q 213 524 217 533 T 222 542" fill="none" stroke="#5a3a1f" stroke-width="3" stroke-linecap="round" stroke-linejoin="round"></path>
      <path id="root-tap-sub-3" class="root" d="M 200 544 Q 185 560 180 569 T 175 578" fill="none" stroke="#5a3a1f" stroke-width="3" stroke-linecap="round" stroke-linejoin="round"></path>
      <path id="root-lat-1" class="root" d="M 200 427 Q 158 446 131 454 Q 103 462 78 471 T 53 480" fill="none" stroke="#5a3a1f" stroke-width="5" stroke-linecap="round" stroke-linejoin="round"></path>
      <path id="root-lat-1-sub-1" class="root" d="M 112 459 Q 89 480 75 490 T 61 501" fill="none" stroke="#4a2d18" stroke-width="3" stroke-linecap="round" stroke-linejoin="round"></path>
      <path id="root-lat-1-sub-2" class="root" d="M 85 468 Q 62 469 50 471 T 38 473" fill="none" stroke="#4a2d18" stroke-width="2" stroke-linecap="round" stroke-linejoin="round"></path>
      <path id="root-lat-2" class="root" d="M 200 426 Q 239 444 264 451 Q 290 459 314 467 T 337 476" fill="none" stroke="#5a3a1f" stroke-width="5" stroke-linecap="round" stroke-linejoin="round"></path>
      <path id="root-lat-2-sub-1" class="root" d="M 282 456 Q 308 476 319 485 T 329 495" fill="none" stroke="#4a2d18" stroke-width="3" stroke-linecap="round" stroke-linejoin="round"></path>
      <path id="root-lat-2-sub-2" class="root" d="M 307 465 Q 329 469 339 469 T 350 469" fill="none" stroke="#4a2d18" stroke-width="2" stroke-linecap="round" stroke-linejoin="round"></path>
      <path id="root-lat-3" class="root" d="M 200 427 Q 167 450 143 460 Q 118 469 99 483 T 80 497" fill="none" stroke="#5a3a1f" stroke-width="5" stroke-linecap="round" stroke-linejoin="round"></path>
      <path id="root-lat-3-sub-1" class="root" d="M 128 469 Q 108 491 99 502 T 91 513" fill="none" stroke="#4a2d18" stroke-width="3" stroke-linecap="round" stroke-linejoin="round"></path>
      <path id="root-lat-3-sub-2" class="root" d="M 107 481 Q 87 489 77 491 T 67 493" fill="none" stroke="#4a2d18" stroke-width="2" stroke-linecap="round" stroke-linejoin="round"></path>
      <path id="root-lat-4" class="root" d="M 200 428 Q 235 449 259 457 Q 283 466 304 478 T 325 489" fill="none" stroke="#5a3a1f" stroke-width="5" stroke-linecap="round" stroke-linejoin="round"></path>
      <path id="root-lat-4-sub-1" class="root" d="M 275 465 Q 295 486 305 496 T 315 507" fill="none" stroke="#4a2d18" stroke-width="3" stroke-linecap="round" stroke-linejoin="round"></path>
      <path id="root-lat-4-sub-2" class="root" d="M 297 476 Q 318 480 328 482 T 338 485" fill="none" stroke="#4a2d18" stroke-width="2" stroke-linecap="round" stroke-linejoin="round"></path>
      <path id="root-lat-5" class="root" d="M 200 433 Q 171 460 152 473 Q 132 486 113 503 T 93 520" fill="none" stroke="#5a3a1f" stroke-width="5" stroke-linecap="round" stroke-linejoin="round"></path>
      <path id="root-lat-5-sub-1" class="root" d="M 136 485 Q 123 510 115 522 T 106 535" fill="none" stroke="#4a2d18" stroke-width="3" stroke-linecap="round" stroke-linejoin="round"></path>
      <path id="root-lat-6" class="root" d="M 200 430 Q 228 456 247 468 Q 265 479 284 495 T 302 511" fill="none" stroke="#5a3a1f" stroke-width="5" stroke-linecap="round" stroke-linejoin="round"></path>
      <path id="root-lat-6-sub-1" class="root" d="M 261 479 Q 277 502 283 513 T 290 525" fill="none" stroke="#4a2d18" stroke-width="3" stroke-linecap="round" stroke-linejoin="round"></path>
      <path id="root-lat-7" class="root" d="M 200 432 Q 179 459 162 472 Q 144 485 132 501 T 119 518" fill="none" stroke="#4a2d18" stroke-width="4" stroke-linecap="round" stroke-linejoin="round"></path>
      <path id="root-lat-7-sub-1" class="root" d="M 151 484 Q 141 507 136 518 T 132 530" fill="none" stroke="#4a2d18" stroke-width="2" stroke-linecap="round" stroke-linejoin="round"></path>
      <path id="root-lat-8" class="root" d="M 200 433 Q 220 463 236 478 Q 252 492 265 510 T 279 527" fill="none" stroke="#4a2d18" stroke-width="4" stroke-linecap="round" stroke-linejoin="round"></path>
      <path id="root-lat-8-sub-1" class="root" d="M 247 489 Q 257 513 261 525 T 265 537" fill="none" stroke="#4a2d18" stroke-width="2" stroke-linecap="round" stroke-linejoin="round"></path>
      <path id="root-lat-9" class="root" d="M 200 436 Q 187 468 175 484 Q 163 500 154 519 T 144 538" fill="none" stroke="#4a2d18" stroke-width="4" stroke-linecap="round" stroke-linejoin="round"></path>
      <path id="root-lat-9-sub-1" class="root" d="M 167 497 Q 161 521 160 533 T 159 545" fill="none" stroke="#4a2d18" stroke-width="2" stroke-linecap="round" stroke-linejoin="round"></path>
      <path id="root-lat-10" class="root" d="M 200 435 Q 213 465 226 480 Q 239 494 247 514 T 255 533" fill="none" stroke="#4a2d18" stroke-width="4" stroke-linecap="round" stroke-linejoin="round"></path>
      <path id="root-lat-10-sub-1" class="root" d="M 233 494 Q 234 517 237 529 T 240 540" fill="none" stroke="#4a2d18" stroke-width="2" stroke-linecap="round" stroke-linejoin="round"></path>
      <path id="root-lat-11" class="root" d="M 200 438 Q 194 468 186 482 Q 179 496 172 514 T 166 533" fill="none" stroke="#4a2d18" stroke-width="4" stroke-linecap="round" stroke-linejoin="round"></path>
      <path id="root-lat-12" class="root" d="M 200 438 Q 207 469 215 485 Q 222 501 230 520 T 237 538" fill="none" stroke="#4a2d18" stroke-width="4" stroke-linecap="round" stroke-linejoin="round"></path>
  </g>
  <g id="trunk">
      <path id="trunk-main" class="trunk" d="M 169 420 C 179 380, 191 296, 193 172 Q 204 160, 215 172 C 222 296, 221 380, 231 420 Z" fill="#8b5a2b"></path>
  </g>
  <g id="branches">
      <path id="branch-1" class="branch" d="M 197 182 Q 154 154 118 124" fill="none" stroke="#7c4d24" stroke-width="8" stroke-linecap="round"></path>
      <path id="branch-2" class="branch" d="M 204 180 Q 248 152 284 122" fill="none" stroke="#7c4d24" stroke-width="8" stroke-linecap="round"></path>
      <path id="branch-3" class="branch" d="M 199 178 Q 172 124 152 80" fill="none" stroke="#7c4d24" stroke-width="7" stroke-linecap="round"></path>
      <path id="branch-4" class="branch" d="M 205 176 Q 234 122 256 78" fill="none" stroke="#7c4d24" stroke-width="7" stroke-linecap="round"></path>
      <path id="branch-5" class="branch" d="M 201 178 Q 200 130 201 92" fill="none" stroke="#7c4d24" stroke-width="6" stroke-linecap="round"></path>
      <path id="branch-1-twig" class="branch" d="M 138 138 Q 122 120 114 100" fill="none" stroke="#7c4d24" stroke-width="4" stroke-linecap="round"></path>
      <path id="branch-2-twig" class="branch" d="M 264 136 Q 280 118 288 98" fill="none" stroke="#7c4d24" stroke-width="4" stroke-linecap="round"></path>
  </g>
  <g id="leaves">
      <path id="clump-d1" class="clump" d="M 251 92 Q 273 111 251 119 Q 256 142 228 136 Q 221 159 200 139 Q 176 162 167 144 Q 142 146 149 118 Q 123 110 140 92 Q 122 73 148 65 Q 143 40 170 46 Q 179 22 200 42 Q 220 24 228 49 Q 258 42 256 63 Q 275 72 251 92 Z" fill="#147A38"></path>
      <path id="clump-d2" class="clump" d="M 162 112 Q 178 128 156 134 Q 161 158 139 153 Q 128 176 110 159 Q 90 170 86 145 Q 64 144 75 123 Q 55 112 74 100 Q 62 78 83 75 Q 88 52 110 64 Q 128 47 140 69 Q 167 63 166 84 Q 183 92 162 112 Z" fill="#147A38"></path>
      <path id="clump-d3" class="clump" d="M 326 106 Q 344 124 325 131 Q 329 157 307 155 Q 294 175 274 157 Q 250 169 244 145 Q 217 143 224 121 Q 205 106 225 91 Q 218 69 244 67 Q 250 43 274 54 Q 291 41 303 66 Q 330 58 329 79 Q 346 87 326 106 Z" fill="#147A38"></path>
      <path id="clump-d4" class="clump" d="M 196 128 Q 212 145 198 152 Q 196 170 175 164 Q 162 180 149 165 Q 128 170 127 151 Q 109 144 119 128 Q 111 115 133 109 Q 132 89 150 93 Q 162 78 175 93 Q 195 88 196 106 Q 211 112 196 128 Z" fill="#147A38"></path>
      <path id="clump-d5" class="clump" d="M 273 124 Q 286 140 272 146 Q 271 166 252 162 Q 240 174 226 156 Q 204 164 201 148 Q 185 141 197 124 Q 185 108 202 100 Q 203 81 224 85 Q 238 69 252 84 Q 270 82 269 104 Q 285 110 273 124 Z" fill="#147A38"></path>
      <path id="clump-d6" class="clump" d="M 238 120 Q 255 136 240 143 Q 242 165 221 162 Q 211 176 194 157 Q 174 169 169 152 Q 147 150 153 132 Q 135 120 151 107 Q 148 92 173 92 Q 176 73 194 83 Q 210 66 220 81 Q 241 77 240 97 Q 255 104 238 120 Z" fill="#147A38"></path>
      <path id="clump-1" class="clump" d="M 244 70 Q 267 89 251 97 Q 253 115 225 108 Q 218 129 200 113 Q 180 132 172 114 Q 149 117 154 94 Q 133 87 150 70 Q 132 52 151 45 Q 147 22 172 26 Q 180 6 200 22 Q 220 6 228 27 Q 252 23 247 45 Q 265 53 244 70 Z" fill="#1B9445"></path>
      <path id="clump-2" class="clump" d="M 160 96 Q 177 113 163 120 Q 165 141 143 137 Q 133 152 116 133 Q 97 144 93 126 Q 73 125 81 107 Q 65 96 81 85 Q 72 66 91 64 Q 96 44 115 54 Q 129 42 138 64 Q 158 59 155 77 Q 173 82 160 96 Z" fill="#1B9445"></path>
      <path id="clump-3" class="clump" d="M 318 90 Q 336 107 323 115 Q 322 130 296 121 Q 287 141 274 127 Q 256 137 253 118 Q 230 118 236 102 Q 220 90 237 79 Q 228 58 246 55 Q 252 41 275 56 Q 290 38 299 53 Q 319 49 316 70 Q 333 75 318 90 Z" fill="#1B9445"></path>
      <path id="clump-4" class="clump" d="M 188 110 Q 200 124 189 130 Q 187 144 168 138 Q 158 152 147 140 Q 130 145 128 130 Q 115 124 126 110 Q 115 97 129 91 Q 130 74 146 77 Q 158 64 170 77 Q 187 73 188 91 Q 200 96 188 110 Z" fill="#1B9445"></path>
      <path id="clump-5" class="clump" d="M 272 106 Q 282 118 268 123 Q 269 142 254 140 Q 244 149 233 132 Q 213 139 211 126 Q 196 120 205 106 Q 198 94 217 90 Q 216 70 230 72 Q 242 59 254 72 Q 270 69 270 88 Q 283 93 272 106 Z" fill="#1B9445"></path>
      <path id="clump-6" class="clump" d="M 235 104 Q 249 118 234 124 Q 235 139 215 134 Q 206 154 194 143 Q 175 152 171 135 Q 152 132 159 115 Q 144 104 159 93 Q 152 77 172 75 Q 176 57 194 65 Q 207 54 216 72 Q 236 67 234 84 Q 249 90 235 104 Z" fill="#1B9445"></path>
      <path id="clump-l1" class="clump" d="M 233 46 Q 244 58 228 62 Q 231 78 214 74 Q 206 94 194 86 Q 178 92 175 72 Q 157 71 164 55 Q 147 45 159 35 Q 154 21 175 20 Q 178 3 195 12 Q 206 1 214 19 Q 233 13 232 28 Q 246 33 233 46 Z" fill="#8BC53F"></path>
      <path id="clump-l2" class="clump" d="M 154 76 Q 165 88 154 93 Q 153 105 137 100 Q 127 113 119 102 Q 102 107 100 94 Q 85 88 92 76 Q 87 65 103 60 Q 104 45 118 49 Q 128 37 138 49 Q 152 46 151 61 Q 164 65 154 76 Z" fill="#8BC53F"></path>
      <path id="clump-l3" class="clump" d="M 302 70 Q 314 83 304 89 Q 303 102 286 98 Q 277 107 268 93 Q 253 98 253 85 Q 240 81 248 70 Q 237 57 248 52 Q 250 39 267 45 Q 276 33 285 44 Q 301 40 302 53 Q 313 58 302 70 Z" fill="#8BC53F"></path>
      <path id="leaf-1" class="leaf" d="M0 0 C -8 -8, -4 -17, 0 -20 C 4 -17, 8 -8, 0 0 Z" fill="#147A38" transform="translate(94 118) rotate(-64)"></path>
      <path id="leaf-2" class="leaf" d="M0 0 C -8 -8, -4 -17, 0 -20 C 4 -17, 8 -8, 0 0 Z" fill="#147A38" transform="translate(308 110) rotate(60)"></path>
      <path id="leaf-3" class="leaf" d="M0 0 C -7 -8, -4 -15, 0 -18 C 4 -15, 7 -8, 0 0 Z" fill="#8BC53F" transform="translate(200 24) rotate(2)"></path>
  </g>
  <g id="blossoms">
      <g id="bloom-1" class="blossom"><circle cx="168" cy="62" r="3" fill="#FDC030"></circle><circle cx="171" cy="65" r="3" fill="#FDC030"></circle><circle cx="170" cy="69" r="3" fill="#FDC030"></circle><circle cx="166" cy="69" r="3" fill="#FDC030"></circle><circle cx="165" cy="65" r="3" fill="#FDC030"></circle><circle cx="168" cy="66" r="2" fill="#E0950F"></circle></g>
      <g id="bloom-2" class="blossom"><circle cx="244" cy="54" r="3" fill="#FDC030"></circle><circle cx="247" cy="57" r="3" fill="#FDC030"></circle><circle cx="246" cy="61" r="3" fill="#FDC030"></circle><circle cx="242" cy="61" r="3" fill="#FDC030"></circle><circle cx="241" cy="57" r="3" fill="#FDC030"></circle><circle cx="244" cy="58" r="2" fill="#E0950F"></circle></g>
      <g id="bloom-3" class="blossom"><circle cx="128" cy="92" r="3" fill="#FDC030"></circle><circle cx="131" cy="95" r="3" fill="#FDC030"></circle><circle cx="130" cy="99" r="3" fill="#FDC030"></circle><circle cx="126" cy="99" r="3" fill="#FDC030"></circle><circle cx="125" cy="95" r="3" fill="#FDC030"></circle><circle cx="128" cy="96" r="2" fill="#E0950F"></circle></g>
      <g id="bloom-4" class="blossom"><circle cx="276" cy="86" r="3" fill="#FDC030"></circle><circle cx="279" cy="89" r="3" fill="#FDC030"></circle><circle cx="278" cy="93" r="3" fill="#FDC030"></circle><circle cx="274" cy="93" r="3" fill="#FDC030"></circle><circle cx="273" cy="89" r="3" fill="#FDC030"></circle><circle cx="276" cy="90" r="2" fill="#E0950F"></circle></g>
  </g>
</svg>