<?xml version="1.0" encoding="UTF-8"?>
<svg viewBox="0 0 100 100" xmlns="http://www.w3.org/2000/svg" width="100" height="100"><rect x="0" y="0" width="100" height="100" rx="14" ry="14" fill="#FAF6EF"/><g><path d="M 8 100 Q 8 74, 30 70 L 70 70 Q 92 74, 92 100 Z" fill="#D4A574"/><rect x="44" y="60" width="12" height="10" fill="#F5D5B5"/><circle cx="50" cy="42" r="22" fill="#F5D5B5"/></g><g fill="#D9B377"><path d="M 28 40 Q 28 20 50 20 Q 72 20 72 40 Q 70 30 50 30 Q 30 30 28 40 Z"/><path d="M 70 36 Q 84 42 80 56 Q 76 50 68 46 Z"/></g><path d="M 28 30 Q 50 22 72 30 L 72 34 Q 50 26 28 34 Z" fill="#C98686"/><g><ellipse cx="42" cy="42" rx="1.6" ry="2.2" fill="#1F1B16"/><ellipse cx="58" cy="42" rx="1.6" ry="2.2" fill="#1F1B16"/><circle cx="38" cy="49" r="2.4" fill="#E8A39A" opacity="0.55"/><circle cx="62" cy="49" r="2.4" fill="#E8A39A" opacity="0.55"/><path d="M 44 50 Q 50 56 56 50" stroke="#5C2A1F" stroke-width="1.4" fill="none" stroke-linecap="round"/></g></svg>