<?xml version="1.0" encoding="UTF-8"?>
<svg viewBox="0 0 100 100" xmlns="http://www.w3.org/2000/svg" width="100" height="100"><g><path d="M 8 100 Q 8 74, 30 70 L 70 70 Q 92 74, 92 100 Z" fill="#C98686"/><path d="M 30 70 Q 38 84, 50 84 Q 62 84, 70 70 L 64 70 Q 58 78, 50 78 Q 42 78, 36 70 Z" fill="#A85F5F"/><rect x="44" y="60" width="12" height="10" fill="#F5D5B5"/><circle cx="50" cy="42" r="22" fill="#F5D5B5"/></g><g fill="#A8552A"><path d="M 28 40 Q 28 20 50 20 Q 72 20 72 40 Q 70 30 50 30 Q 30 30 28 40 Z"/><path d="M 28 40 Q 16 46 20 58 Q 26 50 32 48 Z"/><path d="M 72 40 Q 84 46 80 58 Q 74 50 68 48 Z"/></g><g><ellipse cx="42" cy="42" rx="1.6" ry="2.2" fill="#1F1B16"/><ellipse cx="58" cy="42" rx="1.6" ry="2.2" fill="#1F1B16"/><circle cx="38" cy="49" r="2.4" fill="#E8A39A" opacity="0.55"/><circle cx="62" cy="49" r="2.4" fill="#E8A39A" opacity="0.55"/><path d="M 44 50 Q 50 56 56 50" stroke="#5C2A1F" stroke-width="1.4" fill="none" stroke-linecap="round"/></g><g transform="translate(50,76)"><path d="M 0 -3.4 L 1 -1 L 3.4 -0.7 L 1.6 1 L 2 3.4 L 0 2.3 L -2 3.4 L -1.6 1 L -3.4 -0.7 L -1 -1 Z" fill="#fff"/></g></svg>