<?xml version="1.0" encoding="UTF-8"?>
<svg viewBox="0 0 100 100" xmlns="http://www.w3.org/2000/svg" width="100" height="100"><g><path d="M 8 100 Q 8 74, 30 70 L 70 70 Q 92 74, 92 100 Z" fill="#475569"/><path d="M 30 70 Q 38 84, 50 84 Q 62 84, 70 70 L 64 70 Q 58 78, 50 78 Q 42 78, 36 70 Z" fill="#1F2937"/><rect x="44" y="60" width="12" height="10" fill="#8B5A3C"/><circle cx="50" cy="42" r="22" fill="#8B5A3C"/></g><g><path d="M 24 56 Q 22 20 50 18 Q 78 20 76 56 L 72 56 Q 74 30 50 26 Q 26 30 28 56 Z" fill="#2B1B13"/><path d="M 24 56 L 24 70 L 30 64 Z" fill="#2B1B13"/><path d="M 76 56 L 76 70 L 70 64 Z" fill="#2B1B13"/></g><g fill="#E0B65F"><circle cx="29" cy="46" r="1.4"/><circle cx="71" cy="46" r="1.4"/></g><g><ellipse cx="42" cy="42" rx="1.6" ry="2.2" fill="#1F1B16"/><ellipse cx="58" cy="42" rx="1.6" ry="2.2" fill="#1F1B16"/><path d="M 46 51 Q 50 54 54 51" stroke="#5C2A1F" stroke-width="1.4" fill="none" stroke-linecap="round"/></g></svg>