<?xml version="1.0" encoding="UTF-8"?>
<svg viewBox="0 0 100 100" xmlns="http://www.w3.org/2000/svg" width="100" height="100"><g><path d="M 8 100 Q 8 74, 30 70 L 70 70 Q 92 74, 92 100 Z" fill="#475569"/><path d="M 30 70 Q 38 84, 50 84 Q 62 84, 70 70 L 64 70 Q 58 78, 50 78 Q 42 78, 36 70 Z" fill="#1F2937"/><rect x="44" y="60" width="12" height="10" fill="#C68B5F"/><circle cx="50" cy="42" r="22" fill="#C68B5F"/></g><g fill="#5C3317"><path d="M 28 40 Q 28 18 50 18 Q 72 18 72 40 Q 64 28 50 30 Q 36 28 30 38 Z"/><path d="M 32 32 Q 44 40 62 33 Q 56 30 50 30 Q 40 30 32 32 Z"/></g><g><ellipse cx="42" cy="42" rx="1.6" ry="2.2" fill="#1F1B16"/><ellipse cx="58" cy="42" rx="1.6" ry="2.2" fill="#1F1B16"/><circle cx="38" cy="49" r="2.4" fill="#E8A39A" opacity="0.55"/><circle cx="62" cy="49" r="2.4" fill="#E8A39A" opacity="0.55"/><path d="M 44 50 Q 50 56 56 50" stroke="#5C2A1F" stroke-width="1.4" fill="none" stroke-linecap="round"/></g></svg>