<?xml version="1.0" encoding="UTF-8"?>
<svg viewBox="0 0 100 100" xmlns="http://www.w3.org/2000/svg" width="100" height="100"><g><path d="M 8 100 Q 8 74, 30 70 L 70 70 Q 92 74, 92 100 Z" fill="#6B8FAF"/><path d="M 30 70 Q 38 84, 50 84 Q 62 84, 70 70 L 64 70 Q 58 78, 50 78 Q 42 78, 36 70 Z" fill="#52708E"/><rect x="44" y="60" width="12" height="10" fill="#C68B5F"/><circle cx="50" cy="42" r="22" fill="#C68B5F"/></g><g><path d="M 24 56 Q 22 20 50 18 Q 78 20 76 56 L 72 56 Q 74 30 50 26 Q 26 30 28 56 Z" fill="#2B1B13"/><path d="M 24 56 L 24 70 L 30 64 Z" fill="#2B1B13"/><path d="M 76 56 L 76 70 L 70 64 Z" fill="#2B1B13"/></g><g fill="#E0B65F"><circle cx="29" cy="46" r="1.4"/><circle cx="71" cy="46" r="1.4"/></g><g><ellipse cx="42" cy="42" rx="1.6" ry="2.2" fill="#1F1B16"/><ellipse cx="58" cy="42" rx="1.6" ry="2.2" fill="#1F1B16"/><path d="M 46 51 Q 50 54 54 51" stroke="#5C2A1F" stroke-width="1.4" fill="none" stroke-linecap="round"/></g><g><path d="M 44 70 L 50 86 L 56 70" stroke="#C2410C" stroke-width="1.2" fill="none"/><rect x="46" y="84" width="8" height="8" rx="1.2" fill="#84A98C"/><rect x="47.5" y="86" width="5" height="1" fill="#fff" opacity="0.9"/><rect x="47.5" y="88" width="5" height="0.8" fill="#fff" opacity="0.7"/></g></svg>