<?xml version="1.0" encoding="UTF-8"?>
<svg viewBox="0 0 100 100" xmlns="http://www.w3.org/2000/svg" width="100" height="100"><g><path d="M 8 100 Q 8 74, 30 70 L 70 70 Q 92 74, 92 100 Z" fill="#84A98C"/><path d="M 30 70 Q 38 84, 50 84 Q 62 84, 70 70 L 64 70 Q 58 78, 50 78 Q 42 78, 36 70 Z" fill="#5C7E63"/><rect x="44" y="60" width="12" height="10" fill="#C68B5F"/><circle cx="50" cy="42" r="22" fill="#C68B5F"/></g><g><path d="M 28 34 Q 28 18 50 18 Q 72 18 72 34 Q 72 30 50 30 Q 30 30 28 34 Z" fill="#1F2937"/><circle cx="50" cy="19" r="1.2" fill="#1F2937" stroke="#00000022" stroke-width="0.3"/><path d="M 26 33 Q 14 36 12 40 Q 14 38 28 37 Z" fill="#1F2937"/><path d="M 26 33 Q 18 35 14 39" stroke="#00000022" stroke-width="0.4" fill="none"/><path d="M 44 24 Q 50 21 56 24 L 56 30 Q 50 29 44 30 Z" fill="#1F2937" opacity="0.001"/><circle cx="50" cy="25" r="2" fill="#fff"/></g><g><ellipse cx="42" cy="42" rx="1.6" ry="2.2" fill="#1F1B16"/><ellipse cx="58" cy="42" rx="1.6" ry="2.2" fill="#1F1B16"/><path d="M 44 50 Q 50 56 56 50" stroke="#5C2A1F" stroke-width="1.4" fill="none" stroke-linecap="round"/></g><g><path d="M 50 78 L 60 70" stroke="#F1E5C9" stroke-width="1.2" fill="none"/><rect x="58" y="68" width="6" height="4" rx="1" fill="#D1B36A"/><circle cx="64.5" cy="70" r="0.8" fill="#1F2937"/></g></svg>