<?xml version="1.0" encoding="UTF-8"?>
<svg viewBox="0 0 100 100" xmlns="http://www.w3.org/2000/svg" width="100" height="100"><g><path d="M 8 100 Q 8 74, 30 70 L 70 70 Q 92 74, 92 100 Z" fill="#6B8FAF"/><rect x="44" y="60" width="12" height="10" fill="#5C3A28"/><circle cx="50" cy="42" r="22" fill="#5C3A28"/></g><g fill="#2B1B13"><circle cx="50" cy="18" r="7"/><path d="M 28 38 Q 28 22 50 22 Q 72 22 72 38 Q 70 30 50 30 Q 30 30 28 38 Z"/></g><g fill="#E0B65F"><circle cx="29" cy="46" r="1.4"/><circle cx="71" cy="46" r="1.4"/></g><g><ellipse cx="42" cy="42" rx="1.6" ry="2.2" fill="#1F1B16"/><ellipse cx="58" cy="42" rx="1.6" ry="2.2" fill="#1F1B16"/><path d="M 46 51 Q 50 54 54 51" stroke="#5C2A1F" stroke-width="1.4" fill="none" stroke-linecap="round"/></g><g><path d="M 44 70 L 50 86 L 56 70" stroke="#C2410C" stroke-width="1.2" fill="none"/><rect x="46" y="84" width="8" height="8" rx="1.2" fill="#F59E0B"/><rect x="47.5" y="86" width="5" height="1" fill="#fff" opacity="0.9"/><rect x="47.5" y="88" width="5" height="0.8" fill="#fff" opacity="0.7"/></g></svg>