<?xml version="1.0" encoding="UTF-8"?>
<svg viewBox="0 0 100 100" xmlns="http://www.w3.org/2000/svg" width="100" height="100"><g><path d="M 8 100 Q 8 74, 30 70 L 70 70 Q 92 74, 92 100 Z" fill="#F59E0B"/><path d="M 30 70 Q 38 84, 50 84 Q 62 84, 70 70 L 64 70 Q 58 78, 50 78 Q 42 78, 36 70 Z" fill="#B45309"/><rect x="44" y="60" width="12" height="10" fill="#EBB994"/><circle cx="50" cy="42" r="22" fill="#EBB994"/></g><path d="M 26 44 Q 26 18 50 18 Q 74 18 74 44 L 70 44 Q 72 28 50 26 Q 28 28 30 44 Z" fill="#A8552A"/><g><ellipse cx="42" cy="42" rx="1.6" ry="2.2" fill="#1F1B16"/><ellipse cx="58" cy="42" rx="1.6" ry="2.2" fill="#1F1B16"/><circle cx="38" cy="49" r="2.4" fill="#E8A39A" opacity="0.55"/><circle cx="62" cy="49" r="2.4" fill="#E8A39A" opacity="0.55"/><path d="M 44 50 Q 50 56 56 50" stroke="#5C2A1F" stroke-width="1.4" fill="none" stroke-linecap="round"/></g><path d="M 50 76 q -2 -2 -3 0 q -1 1 0 2 q 1 1.5 3 3 q 2 -1.5 3 -3 q 1 -1 0 -2 q -1 -2 -3 0 Z" fill="#fff"/></svg>