<?xml version="1.0" encoding="UTF-8"?>
<svg viewBox="0 0 100 100" xmlns="http://www.w3.org/2000/svg" width="100" height="100"><g><path d="M 0 100 Q 0 78, 14 75 L 40 75 Q 54 78, 54 100 Z" fill="#F59E0B"/><rect x="24" y="66" width="6" height="10" fill="#EBB994"/><circle cx="27" cy="50" r="13" fill="#EBB994"/><path d="M 15 50 Q 15 34 27 34 Q 39 34 39 50 Q 39 41 27 41 Q 15 41 15 50 Z" fill="#5C3317"/><circle cx="23" cy="50" r="1" fill="#1F1B16"/><circle cx="31" cy="50" r="1" fill="#1F1B16"/><path d="M 24 54 Q 27 56 30 54" stroke="#5C2A1F" stroke-width="0.9" fill="none" stroke-linecap="round"/></g><g><path d="M 28 100 Q 28 74, 42 71 L 58 71 Q 72 74, 72 100 Z" fill="#84A98C"/><rect x="47" y="58" width="6" height="13" fill="#8B5A3C"/><circle cx="50" cy="42" r="14" fill="#8B5A3C"/><path d="M 36 42 Q 36 26 50 26 Q 64 26 64 42 Q 64 33 50 33 Q 36 33 36 42 Z" fill="#2B1B13"/><circle cx="45" cy="42" r="1" fill="#1F1B16"/><circle cx="55" cy="42" r="1" fill="#1F1B16"/><path d="M 47 47 Q 50 49 53 47" stroke="#5C2A1F" stroke-width="0.9" fill="none" stroke-linecap="round"/></g><g><path d="M 46 100 Q 46 78, 60 75 L 86 75 Q 100 78, 100 100 Z" fill="#6B8FAF"/><rect x="70" y="66" width="6" height="10" fill="#C68B5F"/><circle cx="73" cy="50" r="13" fill="#C68B5F"/><path d="M 61 50 Q 61 34 73 34 Q 85 34 85 50 Q 85 41 73 41 Q 61 41 61 50 Z" fill="#2B1B13"/><circle cx="69" cy="50" r="1" fill="#1F1B16"/><circle cx="77" cy="50" r="1" fill="#1F1B16"/><path d="M 70 54 Q 73 56 76 54" stroke="#5C2A1F" stroke-width="0.9" fill="none" stroke-linecap="round"/></g></svg>