<?xml version="1.0" encoding="UTF-8"?>
<svg viewBox="0 0 100 100" xmlns="http://www.w3.org/2000/svg" width="100" height="100"><g><path d="M 8 100 Q 8 74, 30 70 L 70 70 Q 92 74, 92 100 Z" fill="#8B6B8A"/><path d="M 30 70 Q 38 84, 50 84 Q 62 84, 70 70 L 64 70 Q 58 78, 50 78 Q 42 78, 36 70 Z" fill="#6B4F6A"/><rect x="44" y="60" width="12" height="10" fill="#F5D5B5"/><circle cx="50" cy="42" r="22" fill="#F5D5B5"/></g><path d="M 28 40 Q 26 22 50 20 Q 74 22 72 40 Q 70 30 60 30 Q 56 26 50 30 Q 44 26 40 30 Q 30 30 28 40 Z" fill="#E7E5DA"/><g fill="none" stroke="#5C5C5C" stroke-width="1.4"><circle cx="42" cy="42" r="4.5"/><circle cx="58" cy="42" r="4.5"/><line x1="46.5" y1="42" x2="53.5" y2="42"/></g><g><ellipse cx="42" cy="42" rx="1.6" ry="2.2" fill="#1F1B16"/><ellipse cx="58" cy="42" rx="1.6" ry="2.2" fill="#1F1B16"/><path d="M 46 51 Q 50 54 54 51" stroke="#5C2A1F" stroke-width="1.4" fill="none" stroke-linecap="round"/></g><path d="M 33 47 q 1 2 2 3" stroke="#C9A688" stroke-width="0.7" fill="none"/><path d="M 65 47 q 1 2 2 3" stroke="#C9A688" stroke-width="0.7" fill="none"/></svg>