<?xml version="1.0" encoding="UTF-8"?>
<svg viewBox="0 0 100 100" xmlns="http://www.w3.org/2000/svg" width="100" height="100"><g><path d="M 8 100 Q 8 74, 30 70 L 70 70 Q 92 74, 92 100 Z" fill="#8B6B8A"/><path d="M 30 70 Q 38 84, 50 84 Q 62 84, 70 70 L 64 70 Q 58 78, 50 78 Q 42 78, 36 70 Z" fill="#6B4F6A"/><rect x="44" y="60" width="12" height="10" fill="#C68B5F"/><circle cx="50" cy="42" r="22" fill="#C68B5F"/></g><g fill="#E7E5DA"><path d="M 28 38 Q 28 54 34 58 Q 30 50 32 38 Z"/><path d="M 72 38 Q 72 54 66 58 Q 70 50 68 38 Z"/></g><path d="M 32 46 Q 34 60 50 64 Q 66 60 68 46 Q 60 56 50 56 Q 40 56 32 46 Z" fill="#E7E5DA" opacity="0.85"/><g fill="none" stroke="#5C5C5C" stroke-width="1.4"><circle cx="42" cy="42" r="4.5"/><circle cx="58" cy="42" r="4.5"/><line x1="46.5" y1="42" x2="53.5" y2="42"/></g><g><ellipse cx="42" cy="42" rx="1.6" ry="2.2" fill="#1F1B16"/><ellipse cx="58" cy="42" rx="1.6" ry="2.2" fill="#1F1B16"/><path d="M 46 51 Q 50 54 54 51" stroke="#5C2A1F" stroke-width="1.4" fill="none" stroke-linecap="round"/></g></svg>