<?xml version="1.0" encoding="UTF-8"?>
<svg viewBox="0 0 100 100" xmlns="http://www.w3.org/2000/svg" width="100" height="100"><g><path d="M 8 100 Q 8 74, 30 70 L 70 70 Q 92 74, 92 100 Z" fill="#F1E5C9"/><path d="M 30 70 Q 38 84, 50 84 Q 62 84, 70 70 L 64 70 Q 58 78, 50 78 Q 42 78, 36 70 Z" fill="#D8C896"/><rect x="44" y="60" width="12" height="10" fill="#EBB994"/><circle cx="50" cy="42" r="22" fill="#EBB994"/></g><path d="M 28 38 Q 28 20 50 20 Q 72 20 72 38 Q 72 30 50 28 Q 36 28 30 36 Z" fill="#9CA3AF"/><path d="M 44 49 Q 50 51 56 49 Q 54 52 50 52 Q 46 52 44 49 Z" fill="#9CA3AF"/><g><ellipse cx="42" cy="42" rx="1.6" ry="2.2" fill="#1F1B16"/><ellipse cx="58" cy="42" rx="1.6" ry="2.2" fill="#1F1B16"/><path d="M 46 51 Q 50 54 54 51" stroke="#5C2A1F" stroke-width="1.4" fill="none" stroke-linecap="round"/></g><g transform="translate(64,76)"><path d="M 0 6 L 6 0 L 12 6 L 12 12 L 0 12 Z" fill="#F59E0B"/><rect x="4" y="8" width="4" height="4" fill="#fff"/></g></svg>