<?xml version="1.0" encoding="UTF-8"?>
<svg viewBox="0 0 100 100" xmlns="http://www.w3.org/2000/svg" width="100" height="100"><rect x="0" y="0" width="100" height="100" rx="14" ry="14" fill="#FAF6EF"/><g><path d="M 8 100 Q 8 74, 30 70 L 70 70 Q 92 74, 92 100 Z" fill="#C98686"/><rect x="44" y="60" width="12" height="10" fill="#C68B5F"/><circle cx="50" cy="42" r="22" fill="#C68B5F"/></g><g fill="#5C3317"><circle cx="34" cy="28" r="6"/><circle cx="42" cy="22" r="7"/><circle cx="52" cy="20" r="7"/><circle cx="62" cy="23" r="7"/><circle cx="68" cy="30" r="6"/><circle cx="30" cy="36" r="5"/><circle cx="71" cy="36" r="5"/></g><g fill="#E0B65F"><circle cx="29" cy="46" r="1.4"/><circle cx="71" cy="46" r="1.4"/></g><g><ellipse cx="42" cy="42" rx="1.6" ry="2.2" fill="#1F1B16"/><ellipse cx="58" cy="42" rx="1.6" ry="2.2" fill="#1F1B16"/><path d="M 44 50 Q 50 56 56 50" stroke="#5C2A1F" stroke-width="1.4" fill="none" stroke-linecap="round"/></g></svg>