<?xml version="1.0" encoding="UTF-8"?>
<svg viewBox="0 0 100 100" xmlns="http://www.w3.org/2000/svg" width="100" height="100"><rect x="0" y="0" width="100" height="100" rx="14" ry="14" fill="#FAF6EF"/><g><path d="M 8 100 Q 8 74, 30 70 L 70 70 Q 92 74, 92 100 Z" fill="#84A98C"/><rect x="44" y="60" width="12" height="10" fill="#F5D5B5"/><circle cx="50" cy="42" r="22" fill="#F5D5B5"/></g><path d="M 28 40 Q 26 18 50 18 Q 74 18 72 40 Q 70 26 56 26 Q 50 20 42 28 Q 34 26 30 38 Z" fill="#5C3317"/><g><ellipse cx="42" cy="42" rx="1.6" ry="2.2" fill="#1F1B16"/><ellipse cx="58" cy="42" rx="1.6" ry="2.2" fill="#1F1B16"/><circle cx="38" cy="49" r="2.4" fill="#E8A39A" opacity="0.55"/><circle cx="62" cy="49" r="2.4" fill="#E8A39A" opacity="0.55"/><path d="M 44 50 Q 50 56 56 50" stroke="#5C2A1F" stroke-width="1.4" fill="none" stroke-linecap="round"/></g><circle cx="40" cy="46" r="0.5" fill="#A8784E"/><circle cx="44" cy="47" r="0.5" fill="#A8784E"/><circle cx="56" cy="47" r="0.5" fill="#A8784E"/><circle cx="60" cy="46" r="0.5" fill="#A8784E"/></svg>