<?xml version="1.0" encoding="UTF-8"?>
<svg viewBox="0 0 100 100" xmlns="http://www.w3.org/2000/svg" width="100" height="100"><g><path d="M 8 100 Q 8 74, 30 70 L 70 70 Q 92 74, 92 100 Z" fill="#C98686"/><rect x="44" y="60" width="12" height="10" fill="#EBB994"/><circle cx="50" cy="42" r="22" fill="#EBB994"/></g><g><path d="M 24 56 Q 22 20 50 18 Q 78 20 76 56 L 72 56 Q 74 30 50 26 Q 26 30 28 56 Z" fill="#5C3317"/><path d="M 24 56 L 24 70 L 30 64 Z" fill="#5C3317"/><path d="M 76 56 L 76 70 L 70 64 Z" fill="#5C3317"/></g><g fill="none" stroke="#2B2B2B" stroke-width="1.4"><circle cx="42" cy="42" r="4.5"/><circle cx="58" cy="42" r="4.5"/><line x1="46.5" y1="42" x2="53.5" y2="42"/></g><g><ellipse cx="42" cy="42" rx="1.6" ry="2.2" fill="#1F1B16"/><ellipse cx="58" cy="42" rx="1.6" ry="2.2" fill="#1F1B16"/><path d="M 46 51 Q 50 54 54 51" stroke="#5C2A1F" stroke-width="1.4" fill="none" stroke-linecap="round"/></g><g><rect x="20" y="76" width="18" height="14" rx="1.2" fill="#B45309"/><rect x="20" y="76" width="18" height="3" fill="rgba(0,0,0,0.15)"/><line x1="29" y1="79" x2="29" y2="90" stroke="#fff" stroke-width="0.6" opacity="0.7"/></g></svg>