<?xml version="1.0" encoding="UTF-8"?>
<svg viewBox="0 0 100 100" xmlns="http://www.w3.org/2000/svg" width="100" height="100"><rect x="0" y="0" width="100" height="100" rx="14" ry="14" fill="#FAF6EF"/><g><path d="M 8 100 Q 8 74, 30 70 L 70 70 Q 92 74, 92 100 Z" fill="#475569"/><path d="M 30 70 Q 38 84, 50 84 Q 62 84, 70 70 L 64 70 Q 58 78, 50 78 Q 42 78, 36 70 Z" fill="#1F2937"/><rect x="44" y="60" width="12" height="10" fill="#F5D5B5"/><circle cx="50" cy="42" r="22" fill="#F5D5B5"/></g><path d="M 26 44 Q 26 18 50 18 Q 74 18 74 44 L 70 44 Q 72 28 50 26 Q 28 28 30 44 Z" fill="#9CA3AF"/><g fill="none" stroke="#3B3B3B" stroke-width="1.4"><circle cx="42" cy="42" r="4.5"/><circle cx="58" cy="42" r="4.5"/><line x1="46.5" y1="42" x2="53.5" y2="42"/></g><g><ellipse cx="42" cy="42" rx="1.6" ry="2.2" fill="#1F1B16"/><ellipse cx="58" cy="42" rx="1.6" ry="2.2" fill="#1F1B16"/><path d="M 46 51 Q 50 54 54 51" stroke="#5C2A1F" stroke-width="1.4" fill="none" stroke-linecap="round"/></g><g><rect x="62" y="74" width="18" height="22" rx="1.5" fill="#F1E5C9"/><rect x="68" y="72" width="6" height="4" rx="1" fill="#9C7A4A"/><line x1="65" y1="80" x2="77" y2="80" stroke="#9C7A4A" stroke-width="0.8"/><line x1="65" y1="84" x2="77" y2="84" stroke="#9C7A4A" stroke-width="0.8"/><line x1="65" y1="88" x2="73" y2="88" stroke="#9C7A4A" stroke-width="0.8"/></g></svg>