<?xml version="1.0" encoding="UTF-8"?>
<svg viewBox="0 0 400 440" width="460" xmlns="http://www.w3.org/2000/svg" id="trampoline-svg" data-om-id="jsx:/Inline Babel script:1366:43:5"><defs data-om-id="jsx:/Inline Babel script:1472:44:7"><pattern id="net-practical" width="14" height="14" patternUnits="userSpaceOnUse" data-om-id="jsx:/Inline Babel script:1515:46:11"><rect width="14" height="14" fill="#FEF1D6" data-om-id="jsx:/Inline Babel script:1614:47:13"/><path d="M0 7 L7 0 M7 14 L14 7" stroke="#F59E0B" stroke-width="1.1" stroke-linecap="round" opacity="0.85" data-om-id="jsx:/Inline Babel script:1679:48:13"/><path d="M0 7 L7 14 M7 0 L14 7" stroke="#F59E0B" stroke-width="1.1" stroke-linecap="round" opacity="0.85" data-om-id="jsx:/Inline Babel script:1804:49:13"/></pattern><pattern id="net-emotional" width="14" height="14" patternUnits="userSpaceOnUse" data-om-id="jsx:/Inline Babel script:1515:46:11"><rect width="14" height="14" fill="#F8E5E5" data-om-id="jsx:/Inline Babel script:1614:47:13"/><path d="M0 7 L7 0 M7 14 L14 7" stroke="#C98686" stroke-width="1.1" stroke-linecap="round" opacity="0.85" data-om-id="jsx:/Inline Babel script:1679:48:13"/><path d="M0 7 L7 14 M7 0 L14 7" stroke="#C98686" stroke-width="1.1" stroke-linecap="round" opacity="0.85" data-om-id="jsx:/Inline Babel script:1804:49:13"/></pattern><pattern id="net-social" width="14" height="14" patternUnits="userSpaceOnUse" data-om-id="jsx:/Inline Babel script:1515:46:11"><rect width="14" height="14" fill="#E4EFE6" data-om-id="jsx:/Inline Babel script:1614:47:13"/><path d="M0 7 L7 0 M7 14 L14 7" stroke="#84A98C" stroke-width="1.1" stroke-linecap="round" opacity="0.85" data-om-id="jsx:/Inline Babel script:1679:48:13"/><path d="M0 7 L7 14 M7 0 L14 7" stroke="#84A98C" stroke-width="1.1" stroke-linecap="round" opacity="0.85" data-om-id="jsx:/Inline Babel script:1804:49:13"/></pattern></defs><circle cx="200" cy="215" r="162" fill="#5C3A28" data-om-id="jsx:/Inline Babel script:2002:55:7"/><circle cx="200" cy="215" r="157" fill="#7B5E45" data-om-id="jsx:/Inline Babel script:2061:56:7"/><circle cx="200" cy="215" r="152" fill="#5C3A28" data-om-id="jsx:/Inline Babel script:2120:57:7"/><path d="M 200 215 L 200 65 A 150 150 0 0 1 329.9038105676658 290 Z" fill="url(#net-practical)" data-om-id="jsx:/Inline Babel script:2488:65:16"/><path d="M 200 215 L 329.9038105676658 290 A 150 150 0 0 1 70.09618943233423 290.00000000000006 Z" fill="url(#net-emotional)" data-om-id="jsx:/Inline Babel script:2488:65:16"/><path d="M 200 215 L 70.09618943233423 290.00000000000006 A 150 150 0 0 1 199.99999999999997 65 Z" fill="url(#net-social)" data-om-id="jsx:/Inline Babel script:2488:65:16"/><line x1="200" y1="215" x2="200" y2="65" stroke="#3B2A1F" stroke-width="1.4" opacity="0" data-om-id="jsx:/Inline Babel script:2678:71:16"/><line x1="200" y1="215" x2="329.9038105676658" y2="290" stroke="#3B2A1F" stroke-width="1.4" opacity="0" data-om-id="jsx:/Inline Babel script:2678:71:16"/><line x1="200" y1="215" x2="70.09618943233423" y2="290.00000000000006" stroke="#3B2A1F" stroke-width="1.4" opacity="0" data-om-id="jsx:/Inline Babel script:2678:71:16"/><g data-om-id="jsx:/Inline Babel script:3136:83:9"><circle cx="200" cy="215" r="22" fill="#3B2A1F" data-om-id="jsx:/Inline Babel script:3150:84:11"/><circle cx="200" cy="215" r="20" fill="#5C3A28" data-om-id="jsx:/Inline Babel script:3209:85:11"/><text x="200" y="218" text-anchor="middle" font-family="ui-sans-serif, system-ui, sans-serif" font-size="10" font-weight="700" fill="#FBE9B7" letter-spacing="0.1em" data-om-id="jsx:/Inline Babel script:3268:86:11">YOU</text></g><g data-om-id="jsx:/Inline Babel script:3652:95:11"><rect x="323.0807251039056" y="111" width="76" height="22" rx="11" fill="#B45309" data-om-id="jsx:/Inline Babel script:3686:96:13"/><text x="361.0807251039056" y="123" text-anchor="middle" dominant-baseline="middle" font-family="ui-sans-serif, system-ui, sans-serif" font-size="11" font-weight="700" fill="#FFFDF7" letter-spacing="0.02em" data-om-id="jsx:/Inline Babel script:3786:97:13">Practical</text></g><g data-om-id="jsx:/Inline Babel script:3652:95:11"><rect x="162.00000000000006" y="390" width="76" height="22" rx="11" fill="#8E4A4A" data-om-id="jsx:/Inline Babel script:3686:96:13"/><text x="200.00000000000006" y="402" text-anchor="middle" dominant-baseline="middle" font-family="ui-sans-serif, system-ui, sans-serif" font-size="11" font-weight="700" fill="#FFFDF7" letter-spacing="0.02em" data-om-id="jsx:/Inline Babel script:3786:97:13">Emotional</text></g><g data-om-id="jsx:/Inline Babel script:3652:95:11"><rect x="0.9192748960943788" y="111.00000000000006" width="76" height="22" rx="11" fill="#4E7257" data-om-id="jsx:/Inline Babel script:3686:96:13"/><text x="38.91927489609438" y="123.00000000000006" text-anchor="middle" dominant-baseline="middle" font-family="ui-sans-serif, system-ui, sans-serif" font-size="11" font-weight="700" fill="#FFFDF7" letter-spacing="0.02em" data-om-id="jsx:/Inline Babel script:3786:97:13">Social</text></g></svg>